<svg width="340" height="86" viewBox="0 0 340 86" xmlns="http://www.w3.org/2000/svg"><defs><clipPath id="satori_bc-id"><path x="0" y="0" width="340" height="86" d="M10,0 h320 a10,10 0 0 1 10,10 v66 a10,10 0 0 1 -10,10 h-320 a10,10 0 0 1 -10,-10 v-66 a10,10 0 0 1 10,-10"/></clipPath></defs><mask id="satori_om-id"><rect x="1" y="1" width="338" height="84" fill="#fff"/><path width="340" height="86" fill="none" stroke="#000" stroke-width="2" d="M2.9290000000000003,2.9290000000000003 A10,10 0 0 1 10,0 h320 a10,10 0 0 1 10,10 v66 a10,10 0 0 1 -10,10 h-320 a10,10 0 0 1 -10,-10 v-66 A10,10 0 0 1 2.9290000000000003,2.9290000000000003"/></mask><path x="0" y="0" width="340" height="86" fill="#0d1117" d="M10,0 h320 a10,10 0 0 1 10,10 v66 a10,10 0 0 1 -10,10 h-320 a10,10 0 0 1 -10,-10 v-66 a10,10 0 0 1 10,-10"/><path width="340" height="86" clip-path="url(#satori_bc-id)" fill="none" stroke="#30363d" stroke-width="2" d="M2.9290000000000003,2.9290000000000003 A10,10 0 0 1 10,0 h320 a10,10 0 0 1 10,10 v66 a10,10 0 0 1 -10,10 h-320 a10,10 0 0 1 -10,-10 v-66 A10,10 0 0 1 2.9290000000000003,2.9290000000000003"/><mask id="satori_om-id-0"><rect x="17" y="22" width="306" height="16" fill="#fff"/></mask><path fill="#e6edf3" d="M18.8 35.4L18.8 28.1L20.4 28.1L20.3 29.6L20.5 29.6Q21.0 28.7 21.2 28.4Q21.4 28.1 21.7 28.1Q21.9 28.0 22.6 28.0L22.6 28.0L24.0 28.0L24.0 29.7Q23.7 29.7 23.2 29.7L23.2 29.7Q22.5 29.7 21.9 29.8L21.9 29.8Q21.6 29.8 21.3 30.1Q20.9 30.5 20.7 30.9Q20.5 31.4 20.5 31.8L20.5 31.8L20.5 35.4L18.8 35.4ZM28.8 35.5Q27.8 35.5 27.3 35.3Q26.8 35.0 26.5 34.4Q26.3 33.8 26.3 32.7L26.3 32.7L26.3 28.1L28.0 28.1L28.0 32.7Q28.0 33.5 28.3 33.8Q28.5 34.1 29.3 34.1L29.3 34.1Q30.0 34.1 30.4 33.9Q30.8 33.7 31.0 33.2Q31.1 32.7 31.1 31.9L31.1 31.9L31.1 28.1L32.8 28.1L32.8 35.4L31.1 35.4L31.1 34.4L31.0 34.4Q30.7 35.0 30.2 35.3Q29.7 35.5 28.8 35.5L28.8 35.5ZM34.8 35.4L34.8 28.1L36.5 28.1L36.5 29.1L36.6 29.1Q37.0 28.4 37.4 28.1Q37.8 27.9 38.6 27.9L38.6 27.9Q39.6 27.9 40.2 28.2Q40.8 28.4 41.0 29.0Q41.3 29.6 41.3 30.8L41.3 30.8L41.3 35.4L39.6 35.4L39.6 30.7Q39.6 30.0 39.3 29.7Q39.0 29.4 38.2 29.4L38.2 29.4Q37.5 29.4 37.2 29.6Q36.8 29.8 36.6 30.3Q36.5 30.7 36.5 31.6L36.5 31.6L36.5 35.4L34.8 35.4ZM46.5 35.5Q45.2 35.5 44.4 35.2Q43.7 34.8 43.4 34.0Q43.0 33.2 43.0 31.7L43.0 31.7Q43.0 30.2 43.3 29.4Q43.6 28.6 44.4 28.2Q45.1 27.9 46.4 27.9L46.4 27.9Q47.7 27.9 48.4 28.3Q49.1 28.6 49.4 29.4Q49.7 30.3 49.7 31.8L49.7 31.8L49.7 32.3L44.8 32.3Q44.8 33.0 45.0 33.4Q45.2 33.8 45.5 33.9Q45.9 34.1 46.5 34.1L46.5 34.1Q47.1 34.1 47.4 33.9Q47.7 33.7 47.9 33.1L47.9 33.1L49.6 33.1Q49.5 34.1 49.2 34.6Q48.8 35.1 48.2 35.3Q47.6 35.5 46.5 35.5L46.5 35.5ZM44.8 31.0L48.1 31.0Q48.1 30.1 47.7 29.7Q47.3 29.3 46.4 29.3L46.4 29.3Q45.5 29.3 45.2 29.7Q44.8 30.1 44.8 31.0L44.8 31.0ZM51.5 35.4L51.5 33.9L54.1 33.9L54.1 26.6L51.7 26.6L51.7 25.2L55.8 25.2L55.8 33.9L58.2 33.9L58.2 35.4L51.5 35.4ZM62.3 27.2L62.3 25.2L64.4 25.2L64.4 27.2L62.3 27.2ZM60.3 35.4L60.3 33.9L62.7 33.9L62.7 29.5L60.4 29.5L60.4 28.1L64.4 28.1L64.4 33.9L66.7 33.9L66.7 35.4L60.3 35.4ZM72.5 35.5Q71.5 35.5 71.0 35.3Q70.5 35.0 70.3 34.5Q70.1 34.0 70.1 33.0L70.1 33.0L70.1 29.5L68.3 29.5L68.6 28.1L70.2 28.1L70.2 26.6L71.8 25.9L71.8 28.1L74.5 28.1L74.5 29.5L71.8 29.5L71.8 33.0Q71.8 33.4 71.9 33.6Q71.9 33.9 72.2 34.0Q72.5 34.1 73.0 34.1L73.0 34.1Q73.6 34.1 74.7 33.9L74.7 33.9L74.7 35.4Q73.3 35.5 72.5 35.5L72.5 35.5ZM80.1 35.5Q78.8 35.5 78.0 35.2Q77.3 34.8 77.0 34.0Q76.6 33.2 76.6 31.7L76.6 31.7Q76.6 30.2 76.9 29.4Q77.2 28.6 78.0 28.2Q78.7 27.9 80.0 27.9L80.0 27.9Q81.3 27.9 82.0 28.3Q82.7 28.6 83.0 29.4Q83.3 30.3 83.3 31.8L83.3 31.8L83.3 32.3L78.4 32.3Q78.4 33.0 78.6 33.4Q78.8 33.8 79.1 33.9Q79.5 34.1 80.1 34.1L80.1 34.1Q80.7 34.1 81.0 33.9Q81.3 33.7 81.5 33.1L81.5 33.1L83.2 33.1Q83.1 34.1 82.8 34.6Q82.4 35.1 81.8 35.3Q81.2 35.5 80.1 35.5L80.1 35.5ZM78.4 31.0L81.7 31.0Q81.7 30.1 81.3 29.7Q80.9 29.3 80.0 29.3L80.0 29.3Q79.1 29.3 78.8 29.7Q78.4 30.1 78.4 31.0L78.4 31.0ZM85.0 37.2L90.1 24.4L91.7 24.4L86.7 37.2L85.0 37.2ZM93.3 38.4L93.3 28.1L95.0 28.1L95.0 28.8L95.1 28.8Q95.6 28.3 95.9 28.1Q96.3 27.9 97.0 27.9L97.0 27.9Q98.2 27.9 98.9 28.3Q99.6 28.6 99.8 29.4Q100.1 30.2 100.1 31.7L100.1 31.7Q100.1 33.2 99.9 34.0Q99.6 34.8 98.9 35.2Q98.2 35.5 97.0 35.5L97.0 35.5Q96.3 35.5 95.9 35.3Q95.5 35.1 95.1 34.6L95.1 34.6L95.0 34.6L95.0 38.4L93.3 38.4ZM95.0 31.7Q95.0 32.6 95.1 33.1Q95.3 33.6 95.6 33.8Q96.0 34.1 96.6 34.1L96.6 34.1Q97.3 34.1 97.7 33.8Q98.1 33.6 98.2 33.1Q98.4 32.6 98.4 31.7L98.4 31.7Q98.4 30.8 98.2 30.3Q98.1 29.8 97.7 29.6Q97.3 29.4 96.6 29.4L96.6 29.4Q96.0 29.4 95.6 29.6Q95.3 29.8 95.1 30.3Q95.0 30.8 95.0 31.7L95.0 31.7ZM101.9 35.4L101.9 33.9L104.5 33.9L104.5 26.6L102.1 26.6L102.1 25.2L106.2 25.2L106.2 33.9L108.6 33.9L108.6 35.4L101.9 35.4ZM112.8 35.5Q111.8 35.5 111.3 35.3Q110.8 35.0 110.5 34.4Q110.3 33.8 110.3 32.7L110.3 32.7L110.3 28.1L112.0 28.1L112.0 32.7Q112.0 33.5 112.3 33.8Q112.6 34.1 113.3 34.1L113.3 34.1Q114.0 34.1 114.4 33.9Q114.8 33.7 115.0 33.2Q115.1 32.7 115.1 31.9L115.1 31.9L115.1 28.1L116.8 28.1L116.8 35.4L115.1 35.4L115.1 34.4L115.0 34.4Q114.7 35.0 114.2 35.3Q113.7 35.5 112.8 35.5L112.8 35.5ZM122.0 38.5Q120.8 38.5 120.1 38.2Q119.4 38.0 119.1 37.5Q118.8 37.0 118.8 36L118.8 36L120.5 36Q120.5 36.4 120.7 36.7Q120.8 36.9 121.1 37.0Q121.4 37.1 122.0 37.1L122.0 37.1Q122.7 37.1 123.0 36.9Q123.4 36.8 123.5 36.4Q123.6 36.1 123.7 35.5L123.7 35.5L123.7 34.4L123.6 34.4Q123.4 34.8 123.1 35.0Q122.9 35.2 122.5 35.3Q122.2 35.4 121.5 35.4L121.5 35.4Q120.4 35.4 119.7 35.1Q119.1 34.8 118.8 34.0Q118.5 33.2 118.5 31.7L118.5 31.7Q118.5 30.2 118.8 29.4Q119.1 28.6 119.8 28.3Q120.5 27.9 121.7 27.9L121.7 27.9Q122.5 27.9 122.9 28.1Q123.3 28.4 123.6 28.9L123.6 28.9L123.7 28.9L123.7 28.1L125.3 28.1L125.3 35.6Q125.3 36.7 125.0 37.3Q124.7 37.9 124.0 38.2Q123.3 38.5 122.0 38.5L122.0 38.5ZM120.2 31.7Q120.2 32.6 120.4 33.1Q120.5 33.6 120.9 33.8Q121.3 34.0 121.9 34.0L121.9 34.0Q122.6 34.0 123.0 33.8Q123.3 33.6 123.5 33.1Q123.7 32.6 123.7 31.7L123.7 31.7Q123.7 30.8 123.5 30.3Q123.3 29.8 123.0 29.6Q122.6 29.4 121.9 29.4L121.9 29.4Q121.3 29.4 120.9 29.6Q120.5 29.8 120.4 30.3Q120.2 30.8 120.2 31.7L120.2 31.7ZM129.5 27.2L129.5 25.2L131.6 25.2L131.6 27.2L129.5 27.2ZM127.5 35.4L127.5 33.9L129.9 33.9L129.9 29.5L127.6 29.5L127.6 28.1L131.6 28.1L131.6 33.9L133.9 33.9L133.9 35.4L127.5 35.4ZM135.6 35.4L135.6 28.1L137.3 28.1L137.3 29.1L137.4 29.1Q137.8 28.4 138.2 28.1Q138.6 27.9 139.4 27.9L139.4 27.9Q140.4 27.9 141.0 28.2Q141.6 28.4 141.8 29.0Q142.1 29.6 142.1 30.8L142.1 30.8L142.1 35.4L140.4 35.4L140.4 30.7Q140.4 30.0 140.1 29.7Q139.8 29.4 139.0 29.4L139.0 29.4Q138.3 29.4 138.0 29.6Q137.6 29.8 137.4 30.3Q137.3 30.7 137.3 31.6L137.3 31.6L137.3 35.4L135.6 35.4ZM144.5 32.0L144.5 30.4L149.9 30.4L149.9 32.0L144.5 32.0ZM152.4 35.4L152.4 25.2L154.1 25.2L154.1 29.1L154.2 29.1Q154.5 28.4 155.0 28.1Q155.4 27.9 156.2 27.9L156.2 27.9Q157.2 27.9 157.8 28.1Q158.4 28.4 158.6 29.0Q158.9 29.6 158.9 30.7L158.9 30.7L158.9 35.4L157.2 35.4L157.2 30.7Q157.2 29.9 156.9 29.6Q156.6 29.4 155.8 29.4L155.8 29.4Q155.1 29.4 154.7 29.5Q154.4 29.7 154.2 30.2Q154.1 30.7 154.1 31.6L154.1 31.6L154.1 35.4L152.4 35.4ZM163.2 35.5Q162.2 35.5 161.7 35.3Q161.2 35.0 160.9 34.4Q160.7 33.8 160.7 32.7L160.7 32.7L160.7 28.1L162.4 28.1L162.4 32.7Q162.4 33.5 162.7 33.8Q163.0 34.1 163.7 34.1L163.7 34.1Q164.4 34.1 164.8 33.9Q165.2 33.7 165.4 33.2Q165.5 32.7 165.5 31.9L165.5 31.9L165.5 28.1L167.2 28.1L167.2 35.4L165.5 35.4L165.5 34.4L165.4 34.4Q165.1 35.0 164.6 35.3Q164.1 35.5 163.2 35.5L163.2 35.5ZM173.0 35.5Q172.3 35.5 171.9 35.3Q171.4 35.1 171.0 34.6L171.0 34.6L170.9 34.6L170.9 35.4L169.2 35.4L169.2 25.2L170.9 25.2L170.9 28.6L171.0 28.6Q171.4 28.1 171.8 27.9Q172.2 27.7 173.0 27.7L173.0 27.7Q174.2 27.7 174.8 28.1Q175.5 28.4 175.7 29.3Q176.0 30.1 176.0 31.6L176.0 31.6Q176.0 33.2 175.7 34.0Q175.5 34.8 174.8 35.2Q174.2 35.5 173.0 35.5L173.0 35.5ZM170.8 31.6Q170.8 32.6 171.0 33.1Q171.1 33.6 171.5 33.8Q171.8 34.1 172.5 34.1L172.5 34.1Q173.2 34.1 173.6 33.8Q174.0 33.6 174.1 33.1Q174.3 32.6 174.3 31.6L174.3 31.6Q174.3 30.7 174.1 30.1Q174.0 29.6 173.6 29.4Q173.2 29.2 172.5 29.2L172.5 29.2Q171.8 29.2 171.5 29.4Q171.1 29.6 171.0 30.1Q170.8 30.7 170.8 31.6L170.8 31.6Z "/><mask id="satori_om-id-1"><rect x="17" y="48" width="306" height="16" fill="#fff"/></mask><mask id="satori_om-id-1-0"><rect x="17" y="48" width="44" height="16" fill="#fff"/></mask><path x="17" y="48" width="44" height="16" fill="#1f6feb" d="M25,48 h28 a8,8 0 0 1 8,8 v0 a8,8 0 0 1 -8,8 h-28 a8,8 0 0 1 -8,-8 v0 a8,8 0 0 1 8,-8"/><path fill="#000" d="M30 59.7Q29.0 59.7 28.5 59.4Q28.0 59.2 27.7 58.6Q27.5 58.0 27.5 56.9L27.5 56.9Q27.5 55.9 27.7 55.3Q28.0 54.7 28.5 54.5Q29.0 54.2 30 54.2L30 54.2Q31.0 54.2 31.5 54.5Q32.0 54.7 32.3 55.3Q32.5 55.9 32.5 56.9L32.5 56.9Q32.5 58.0 32.3 58.6Q32.0 59.2 31.5 59.4Q31.0 59.7 30 59.7L30 59.7ZM28.7 56.9Q28.7 57.6 28.9 58.0Q29.0 58.3 29.2 58.5Q29.5 58.6 30 58.6L30 58.6Q30.5 58.6 30.8 58.5Q31.0 58.3 31.1 58.0Q31.3 57.6 31.3 56.9L31.3 56.9Q31.3 56.3 31.1 55.9Q31.0 55.6 30.8 55.4Q30.5 55.2 30 55.2L30 55.2Q29.5 55.2 29.2 55.4Q29.0 55.6 28.9 55.9Q28.7 56.3 28.7 56.9L28.7 56.9ZM33.5 61.7L33.5 54.3L34.7 54.3L34.7 54.9L34.8 54.9Q35.1 54.5 35.4 54.4Q35.7 54.2 36.1 54.2L36.1 54.2Q37.0 54.2 37.5 54.5Q38.0 54.7 38.2 55.3Q38.4 55.9 38.4 57.0L38.4 57.0Q38.4 58.0 38.2 58.6Q38.0 59.2 37.5 59.4Q37.0 59.7 36.1 59.7L36.1 59.7Q35.6 59.7 35.3 59.5Q35.0 59.4 34.8 59.0L34.8 59.0L34.7 59.0L34.7 61.7L33.5 61.7ZM34.7 57.0Q34.7 57.6 34.8 58.0Q34.9 58.3 35.1 58.5Q35.4 58.6 35.9 58.6L35.9 58.6Q36.4 58.6 36.6 58.5Q36.9 58.3 37.0 58.0Q37.1 57.6 37.1 57.0L37.1 57.0Q37.1 56.3 37.0 55.9Q36.9 55.6 36.6 55.4Q36.4 55.3 35.9 55.3L35.9 55.3Q35.4 55.3 35.1 55.4Q34.9 55.6 34.8 55.9Q34.7 56.3 34.7 57.0L34.7 57.0ZM42.1 59.7Q41.1 59.7 40.6 59.4Q40.0 59.2 39.8 58.6Q39.6 58.0 39.6 56.9L39.6 56.9Q39.6 55.8 39.8 55.3Q40.0 54.7 40.5 54.5Q41.1 54.2 42.0 54.2L42.0 54.2Q42.9 54.2 43.4 54.5Q43.9 54.7 44.2 55.3Q44.4 55.9 44.4 57.0L44.4 57.0L44.4 57.4L40.8 57.4Q40.9 57.9 41.0 58.1Q41.1 58.4 41.4 58.5Q41.6 58.6 42.1 58.6L42.1 58.6Q42.5 58.6 42.7 58.5Q42.9 58.3 43.1 58.0L43.1 58.0L44.3 58.0Q44.2 58.6 44.0 59.0Q43.7 59.3 43.3 59.5Q42.9 59.7 42.1 59.7L42.1 59.7ZM40.8 56.4L43.2 56.4Q43.2 55.8 42.9 55.5Q42.7 55.2 42.0 55.2L42.0 55.2Q41.4 55.2 41.1 55.5Q40.8 55.8 40.8 56.4L40.8 56.4ZM45.7 59.6L45.7 54.3L46.9 54.3L46.9 55.1L47.0 55.1Q47.3 54.6 47.6 54.4Q47.9 54.2 48.4 54.2L48.4 54.2Q49.2 54.2 49.6 54.4Q50.0 54.6 50.2 55.0Q50.3 55.5 50.3 56.3L50.3 56.3L50.3 59.6L49.1 59.6L49.1 56.2Q49.1 55.7 48.9 55.5Q48.7 55.3 48.1 55.3L48.1 55.3Q47.7 55.3 47.4 55.4Q47.1 55.6 47.0 55.9Q46.9 56.2 46.9 56.9L46.9 56.9L46.9 59.6L45.7 59.6Z "/><mask id="satori_om-id-1-1"><rect x="69" y="49" width="139" height="13" fill="#fff"/></mask><path fill="#8b949e" d="M69.5 59.5L71.6 52.0L73.0 52.0L75.2 59.5L74.2 59.5L73.7 57.6L70.9 57.6L70.4 59.5L69.5 59.5ZM71.1 56.8L73.5 56.8L72.4 52.8L72.3 52.8L71.1 56.8ZM78.6 59.6Q77.7 59.6 77.2 59.4Q76.8 59.1 76.5 58.4Q76.3 57.8 76.3 56.6L76.3 56.6Q76.3 55.4 76.5 54.8Q76.7 54.2 77.2 53.9Q77.7 53.6 78.6 53.6L78.6 53.6Q79.3 53.6 79.6 53.8Q79.9 53.9 80.2 54.4L80.2 54.4L80.3 54.4L80.3 51.5L81.2 51.5L81.2 59.5L80.3 59.5L80.3 58.9L80.2 58.9Q79.9 59.3 79.5 59.5Q79.2 59.6 78.6 59.6L78.6 59.6ZM77.3 56.6Q77.3 57.5 77.4 57.9Q77.6 58.4 77.9 58.6Q78.2 58.8 78.8 58.8L78.8 58.8Q79.4 58.8 79.7 58.6Q80.0 58.4 80.1 57.9Q80.3 57.5 80.3 56.6L80.3 56.6Q80.3 55.8 80.1 55.3Q80.0 54.9 79.7 54.7Q79.4 54.5 78.8 54.5L78.8 54.5Q78.2 54.5 77.9 54.7Q77.6 54.9 77.4 55.3Q77.3 55.8 77.3 56.6L77.3 56.6ZM85.2 59.6Q84.3 59.6 83.8 59.4Q83.4 59.1 83.1 58.4Q82.9 57.8 82.9 56.6L82.9 56.6Q82.9 55.4 83.1 54.8Q83.3 54.2 83.8 53.9Q84.3 53.6 85.2 53.6L85.2 53.6Q85.9 53.6 86.2 53.8Q86.5 53.9 86.8 54.4L86.8 54.4L86.9 54.4L86.9 51.5L87.8 51.5L87.8 59.5L86.9 59.5L86.9 58.9L86.8 58.9Q86.5 59.3 86.1 59.5Q85.8 59.6 85.2 59.6L85.2 59.6ZM83.9 56.6Q83.9 57.5 84.0 57.9Q84.2 58.4 84.5 58.6Q84.8 58.8 85.4 58.8L85.4 58.8Q86.0 58.8 86.3 58.6Q86.6 58.4 86.7 57.9Q86.9 57.5 86.9 56.6L86.9 56.6Q86.9 55.8 86.7 55.3Q86.6 54.9 86.3 54.7Q86.0 54.5 85.4 54.5L85.4 54.5Q84.8 54.5 84.5 54.7Q84.2 54.9 84.0 55.3Q83.9 55.8 83.9 56.6L83.9 56.6Z M98.0 59.5L98.0 54.6L96.5 54.6L96.3 53.8L98.0 53.8L98.0 53.0Q98.0 52.3 98.2 52.0Q98.4 51.6 98.9 51.4Q99.3 51.3 100.2 51.3L100.2 51.3Q100.4 51.3 100.9 51.3L100.9 51.3L100.9 52.1Q100.8 52.1 100.4 52.1L100.4 52.1Q99.8 52.1 99.5 52.2Q99.1 52.3 99.0 52.5Q98.8 52.7 98.8 53.0L98.8 53.0L98.8 53.8L100.8 53.8L100.8 54.6L98.8 54.6L98.8 59.5L98.0 59.5ZM104.8 52.8L104.8 51.5L106.0 51.5L106.0 52.8L104.8 52.8ZM103.2 59.5L103.2 58.7L105.1 58.7L105.1 54.6L103.4 54.6L103.4 53.8L106.0 53.8L106.0 58.7L107.8 58.7L107.8 59.5L103.2 59.5ZM110.4 59.5L110.4 53.8L111.3 53.8L111.3 55.1L111.4 55.1Q111.7 54.4 111.9 54.2Q112.0 53.9 112.3 53.8Q112.5 53.8 113.0 53.7L113.0 53.7L113.5 53.7Q113.7 53.7 114.1 53.8L114.1 53.8L114.1 54.6Q113.8 54.6 113.4 54.6L113.4 54.6Q113.0 54.6 112.7 54.6L112.7 54.6Q112.4 54.7 112.1 55.0Q111.8 55.3 111.5 55.7Q111.3 56.1 111.3 56.6L111.3 56.6L111.3 59.5L110.4 59.5ZM118.6 59.6Q117.6 59.6 117.1 59.4Q116.5 59.1 116.3 58.5Q116.1 57.8 116.1 56.6L116.1 56.6Q116.1 55.4 116.3 54.8Q116.6 54.2 117.1 53.9Q117.6 53.6 118.5 53.6L118.5 53.6Q119.5 53.6 120.0 53.9Q120.5 54.2 120.7 54.9Q120.9 55.6 120.8 57.0L120.8 57.0L117.0 57.0Q117.1 57.7 117.2 58.1Q117.4 58.5 117.7 58.7Q118.0 58.8 118.6 58.8L118.6 58.8Q119.1 58.8 119.4 58.7Q119.6 58.5 119.8 58.0L119.8 58.0L120.7 58.0Q120.6 58.7 120.4 59.0Q120.1 59.4 119.7 59.5Q119.3 59.6 118.6 59.6L118.6 59.6ZM117.0 56.2L120.0 56.2Q119.9 55.5 119.8 55.1Q119.7 54.8 119.4 54.6Q119.0 54.5 118.5 54.5L118.5 54.5Q118.0 54.5 117.7 54.6Q117.4 54.8 117.2 55.1Q117.1 55.5 117.0 56.2L117.0 56.2ZM122.3 59.5L122.3 53.8L123.1 53.8L123.1 54.5L123.2 54.5Q123.4 54.0 123.6 53.8Q123.9 53.6 124.3 53.6L124.3 53.6Q124.8 53.6 125.0 53.8Q125.3 54.0 125.4 54.5L125.4 54.5L125.5 54.5Q125.7 54.0 125.9 53.8Q126.2 53.6 126.6 53.6L126.6 53.6Q127.1 53.6 127.4 53.8Q127.7 54.0 127.8 54.5Q127.9 55.0 127.9 55.8L127.9 55.8L127.9 59.5L127.0 59.5L127.0 56.0Q127.0 55.4 127.0 55.1Q126.9 54.8 126.7 54.6Q126.6 54.5 126.3 54.5L126.3 54.5Q126.0 54.5 125.8 54.6Q125.7 54.8 125.6 55.1Q125.5 55.5 125.5 56.2L125.5 56.2L125.5 59.5L124.7 59.5L124.7 56.0Q124.7 55.1 124.5 54.8Q124.3 54.5 123.9 54.5L123.9 54.5Q123.6 54.5 123.5 54.6Q123.3 54.8 123.2 55.2Q123.2 55.6 123.2 56.2L123.2 56.2L123.2 59.5L122.3 59.5ZM131.1 59.6Q130.4 59.6 130.1 59.5Q129.7 59.3 129.5 59.0Q129.4 58.6 129.4 57.9L129.4 57.9Q129.4 57.1 129.6 56.7Q129.8 56.3 130.4 56.1Q130.9 55.9 131.9 55.9L131.9 55.9L132.9 55.9L132.9 55.6Q132.9 55.2 132.8 54.9Q132.7 54.7 132.4 54.5Q132.2 54.4 131.6 54.4L131.6 54.4Q131.0 54.4 130.7 54.6Q130.5 54.8 130.5 55.3L130.5 55.3L129.5 55.3Q129.5 54.6 129.7 54.3Q129.9 53.9 130.4 53.8Q130.8 53.6 131.6 53.6L131.6 53.6Q132.5 53.6 133.0 53.8Q133.4 54.0 133.6 54.4Q133.8 54.8 133.8 55.6L133.8 55.6L133.8 59.5L133.0 59.5L133.0 58.8L132.9 58.8Q132.6 59.3 132.2 59.4Q131.9 59.6 131.1 59.6L131.1 59.6ZM130.3 57.8Q130.3 58.4 130.5 58.6Q130.7 58.8 131.4 58.8L131.4 58.8Q132.0 58.8 132.3 58.6Q132.6 58.4 132.8 58.0Q132.9 57.5 132.9 56.7L132.9 56.7L131.7 56.7Q131.1 56.7 130.8 56.8Q130.5 56.9 130.4 57.1Q130.3 57.4 130.3 57.8L130.3 57.8ZM139.9 59.5L137.3 56.4L137.3 59.5L136.4 59.5L136.4 51.5L137.3 51.5L137.3 56.3L139.6 53.8L140.8 53.8L138.4 56.3L141.2 59.5L139.9 59.5ZM144.3 52.8L144.3 51.5L145.6 51.5L145.6 52.8L144.3 52.8ZM142.8 59.5L142.8 58.7L144.7 58.7L144.7 54.6L143.0 54.6L143.0 53.8L145.6 53.8L145.6 58.7L147.4 58.7L147.4 59.5L142.8 59.5ZM149.2 59.5L149.2 53.8L150.1 53.8L150.1 54.6L150.2 54.6Q150.4 54.0 150.8 53.8Q151.2 53.6 151.9 53.6L151.9 53.6Q152.7 53.6 153.1 53.8Q153.4 54.0 153.6 54.5Q153.8 55.0 153.8 55.8L153.8 55.8L153.8 59.5L152.9 59.5L152.9 55.8Q152.9 55.3 152.8 55.0Q152.6 54.7 152.4 54.6Q152.1 54.5 151.6 54.5L151.6 54.5Q151.0 54.5 150.7 54.7Q150.4 54.9 150.3 55.3Q150.1 55.7 150.1 56.5L150.1 56.5L150.1 59.5L149.2 59.5ZM158.0 61.9Q157.2 61.9 156.7 61.7Q156.2 61.6 156.0 61.2Q155.8 60.9 155.7 60.2L155.7 60.2L156.7 60.2Q156.7 60.5 156.8 60.7Q156.9 60.9 157.2 61.0Q157.5 61.1 158.0 61.1L158.0 61.1Q158.6 61.1 158.9 61.0Q159.2 60.8 159.3 60.5Q159.4 60.2 159.5 59.5L159.5 59.5L159.5 58.7L159.4 58.7Q159.2 59.2 158.9 59.4Q158.6 59.5 157.9 59.5L157.9 59.5Q157.0 59.5 156.5 59.3Q156.0 59.0 155.7 58.4Q155.5 57.8 155.5 56.6L155.5 56.6Q155.5 55.4 155.7 54.8Q156.0 54.2 156.5 53.9Q157.0 53.6 157.9 53.6L157.9 53.6Q158.6 53.6 158.9 53.8Q159.2 54.0 159.4 54.5L159.4 54.5L159.5 54.5L159.5 53.8L160.4 53.8L160.4 59.7Q160.3 60.5 160.1 61.0Q159.9 61.5 159.4 61.7Q158.9 61.9 158.0 61.9L158.0 61.9ZM156.5 56.6Q156.5 57.5 156.6 57.9Q156.7 58.4 157.0 58.5Q157.4 58.7 158.0 58.7L158.0 58.7Q158.6 58.7 158.9 58.5Q159.2 58.4 159.3 57.9Q159.5 57.5 159.5 56.6L159.5 56.6Q159.5 55.8 159.3 55.3Q159.2 54.8 158.9 54.6Q158.6 54.4 158.0 54.4L158.0 54.4Q157.4 54.4 157.0 54.6Q156.7 54.8 156.6 55.3Q156.5 55.8 156.5 56.6L156.5 56.6Z M169.0 61.9L169.0 53.8L169.9 53.8L169.9 54.4L170.0 54.4Q170.3 53.9 170.6 53.8Q171.0 53.6 171.5 53.6L171.5 53.6Q172.4 53.6 172.9 53.9Q173.4 54.2 173.6 54.8Q173.8 55.4 173.8 56.6L173.8 56.6Q173.8 57.8 173.6 58.4Q173.4 59.1 172.9 59.4Q172.5 59.6 171.6 59.6L171.6 59.6Q170.9 59.6 170.6 59.5Q170.3 59.3 170.0 58.9L170.0 58.9L169.9 58.9L169.9 61.9L169.0 61.9ZM169.9 56.6Q169.9 57.5 170.0 58.0Q170.2 58.4 170.5 58.6Q170.8 58.8 171.3 58.8L171.3 58.8Q171.9 58.8 172.3 58.6Q172.6 58.4 172.8 57.9Q172.9 57.5 172.9 56.6L172.9 56.6Q172.9 55.8 172.8 55.3Q172.6 54.9 172.3 54.7Q171.9 54.5 171.3 54.5L171.3 54.5Q170.8 54.5 170.5 54.6Q170.2 54.8 170.0 55.3Q169.9 55.8 169.9 56.6L169.9 56.6ZM175.6 59.5L175.6 58.7L177.5 58.7L177.5 52.3L175.7 52.3L175.7 51.5L178.4 51.5L178.4 58.7L180.3 58.7L180.3 59.5L175.6 59.5ZM184.0 59.6Q183.3 59.6 182.9 59.4Q182.5 59.2 182.3 58.8Q182.2 58.3 182.2 57.4L182.2 57.4L182.2 53.8L183.1 53.8L183.1 57.5Q183.1 58.0 183.2 58.3Q183.3 58.6 183.6 58.7Q183.8 58.8 184.2 58.8L184.2 58.8Q184.9 58.8 185.2 58.6Q185.6 58.4 185.7 58.0Q185.9 57.5 185.9 56.7L185.9 56.7L185.9 53.8L186.8 53.8L186.8 59.5L185.9 59.5L185.9 58.7L185.8 58.7Q185.5 59.2 185.1 59.4Q184.8 59.6 184.0 59.6L184.0 59.6ZM191.0 61.9Q190.2 61.9 189.7 61.7Q189.2 61.6 189.0 61.2Q188.8 60.9 188.7 60.2L188.7 60.2L189.7 60.2Q189.7 60.5 189.8 60.7Q189.9 60.9 190.2 61.0Q190.5 61.1 191.0 61.1L191.0 61.1Q191.6 61.1 191.9 61.0Q192.2 60.8 192.3 60.5Q192.4 60.2 192.5 59.5L192.5 59.5L192.5 58.7L192.4 58.7Q192.2 59.2 191.9 59.4Q191.6 59.5 190.9 59.5L190.9 59.5Q190.0 59.5 189.5 59.3Q189.0 59.0 188.7 58.4Q188.5 57.8 188.5 56.6L188.5 56.6Q188.5 55.4 188.7 54.8Q189.0 54.2 189.5 53.9Q190.0 53.6 190.9 53.6L190.9 53.6Q191.6 53.6 191.9 53.8Q192.2 54.0 192.4 54.5L192.4 54.5L192.5 54.5L192.5 53.8L193.4 53.8L193.4 59.7Q193.3 60.5 193.1 61.0Q192.9 61.5 192.4 61.7Q191.9 61.9 191.0 61.9L191.0 61.9ZM189.5 56.6Q189.5 57.5 189.6 57.9Q189.7 58.4 190.0 58.5Q190.4 58.7 191.0 58.7L191.0 58.7Q191.6 58.7 191.9 58.5Q192.2 58.4 192.3 57.9Q192.5 57.5 192.5 56.6L192.5 56.6Q192.5 55.8 192.3 55.3Q192.2 54.8 191.9 54.6Q191.6 54.4 191.0 54.4L191.0 54.4Q190.4 54.4 190.0 54.6Q189.7 54.8 189.6 55.3Q189.5 55.8 189.5 56.6L189.5 56.6ZM197.1 52.8L197.1 51.5L198.4 51.5L198.4 52.8L197.1 52.8ZM195.6 59.5L195.6 58.7L197.5 58.7L197.5 54.6L195.8 54.6L195.8 53.8L198.4 53.8L198.4 58.7L200.2 58.7L200.2 59.5L195.6 59.5ZM202.0 59.5L202.0 53.8L202.9 53.8L202.9 54.6L203.0 54.6Q203.2 54.0 203.6 53.8Q204.0 53.6 204.7 53.6L204.7 53.6Q205.5 53.6 205.9 53.8Q206.2 54.0 206.4 54.5Q206.6 55.0 206.6 55.8L206.6 55.8L206.6 59.5L205.7 59.5L205.7 55.8Q205.7 55.3 205.6 55.0Q205.4 54.7 205.2 54.6Q204.9 54.5 204.4 54.5L204.4 54.5Q203.8 54.5 203.5 54.7Q203.2 54.9 203.1 55.3Q202.9 55.7 202.9 56.5L202.9 56.5L202.9 59.5L202.0 59.5Z "/></svg>