<svg width="340" height="86" viewBox="0 0 340 86" xmlns="http://www.w3.org/2000/svg"><defs><clipPath id="satori_bc-id"><path x="0" y="0" width="340" height="86" d="M10,0 h320 a10,10 0 0 1 10,10 v66 a10,10 0 0 1 -10,10 h-320 a10,10 0 0 1 -10,-10 v-66 a10,10 0 0 1 10,-10"/></clipPath></defs><mask id="satori_om-id"><rect x="1" y="1" width="338" height="84" fill="#fff"/><path width="340" height="86" fill="none" stroke="#000" stroke-width="2" d="M2.9290000000000003,2.9290000000000003 A10,10 0 0 1 10,0 h320 a10,10 0 0 1 10,10 v66 a10,10 0 0 1 -10,10 h-320 a10,10 0 0 1 -10,-10 v-66 A10,10 0 0 1 2.9290000000000003,2.9290000000000003"/></mask><path x="0" y="0" width="340" height="86" fill="#0d1117" d="M10,0 h320 a10,10 0 0 1 10,10 v66 a10,10 0 0 1 -10,10 h-320 a10,10 0 0 1 -10,-10 v-66 a10,10 0 0 1 10,-10"/><path width="340" height="86" clip-path="url(#satori_bc-id)" fill="none" stroke="#30363d" stroke-width="2" d="M2.9290000000000003,2.9290000000000003 A10,10 0 0 1 10,0 h320 a10,10 0 0 1 10,10 v66 a10,10 0 0 1 -10,10 h-320 a10,10 0 0 1 -10,-10 v-66 A10,10 0 0 1 2.9290000000000003,2.9290000000000003"/><mask id="satori_om-id-0"><rect x="17" y="17" width="306" height="16" fill="#fff"/></mask><path fill="#e6edf3" d="M21.5 30.5Q20.1 30.5 19.3 30.2Q18.6 29.8 18.2 29.0Q17.9 28.2 17.9 26.7L17.9 26.7Q17.9 25.2 18.2 24.4Q18.6 23.6 19.3 23.2Q20.1 22.9 21.4 22.9L21.4 22.9Q22.6 22.9 23.3 23.1Q23.9 23.4 24.2 23.9Q24.5 24.5 24.5 25.5L24.5 25.5L22.9 25.5Q22.8 24.9 22.5 24.6Q22.2 24.4 21.5 24.4L21.5 24.4Q20.8 24.4 20.4 24.6Q20.0 24.8 19.8 25.3Q19.6 25.8 19.6 26.8L19.6 26.8Q19.6 27.7 19.8 28.1Q20.0 28.6 20.4 28.8Q20.8 29.0 21.5 29.0L21.5 29.0Q22.2 29.0 22.5 28.8Q22.7 28.6 22.9 28.0L22.9 28.0L24.5 28.0Q24.5 29.0 24.2 29.5Q23.9 30.1 23.3 30.3Q22.6 30.5 21.5 30.5L21.5 30.5ZM29.1 22.2L29.1 20.2L31.2 20.2L31.2 22.2L29.1 22.2ZM26.8 33.7L26.8 32.3Q28.0 32.1 28.5 32.0Q29.1 31.8 29.3 31.5Q29.5 31.3 29.5 30.8L29.5 30.8L29.5 24.5L27.3 24.5L27.3 23.1L31.2 23.1L31.2 30.9Q31.2 32.0 30.8 32.5Q30.5 33.1 29.6 33.4Q28.7 33.6 26.8 33.7L26.8 33.7ZM34.5 33.4L34.5 23.1L36.2 23.1L36.2 23.8L36.3 23.8Q36.8 23.3 37.1 23.1Q37.5 22.9 38.2 22.9L38.2 22.9Q39.4 22.9 40.1 23.3Q40.8 23.6 41.0 24.4Q41.3 25.2 41.3 26.7L41.3 26.7Q41.3 28.2 41.1 29.0Q40.8 29.8 40.1 30.2Q39.4 30.5 38.2 30.5L38.2 30.5Q37.5 30.5 37.1 30.3Q36.7 30.1 36.3 29.6L36.3 29.6L36.2 29.6L36.2 33.4L34.5 33.4ZM36.2 26.7Q36.2 27.6 36.3 28.1Q36.5 28.6 36.8 28.8Q37.2 29.1 37.8 29.1L37.8 29.1Q38.5 29.1 38.9 28.8Q39.3 28.6 39.4 28.1Q39.6 27.6 39.6 26.7L39.6 26.7Q39.6 25.8 39.4 25.3Q39.3 24.8 38.9 24.6Q38.5 24.4 37.8 24.4L37.8 24.4Q37.2 24.4 36.8 24.6Q36.5 24.8 36.3 25.3Q36.2 25.8 36.2 26.7L36.2 26.7ZM45.7 30.5Q44.7 30.5 44.2 30.3Q43.6 30.1 43.4 29.6Q43.2 29.1 43.2 28.3L43.2 28.3Q43.2 27.2 43.5 26.7Q43.8 26.1 44.6 25.8Q45.3 25.6 46.7 25.6L46.7 25.6L47.9 25.6L47.9 25.5Q47.9 24.8 47.5 24.6Q47.2 24.3 46.4 24.3L46.4 24.3Q45.6 24.3 45.3 24.5Q45.1 24.7 45.1 25.3L45.1 25.3L43.4 25.3Q43.3 24.4 43.6 23.8Q43.9 23.3 44.5 23.1Q45.2 22.9 46.4 22.9L46.4 22.9Q47.6 22.9 48.3 23.1Q48.9 23.4 49.2 23.9Q49.5 24.5 49.5 25.5L49.5 25.5L49.5 30.4L47.9 30.4L47.9 29.5L47.8 29.5Q47.4 30.1 47.0 30.3Q46.5 30.5 45.7 30.5L45.7 30.5ZM44.9 28.1Q44.9 28.7 45.1 28.9Q45.3 29.1 46.0 29.1L46.0 29.1Q46.7 29.1 47.1 28.9Q47.5 28.7 47.7 28.3Q47.8 27.8 47.8 27.0L47.8 27.0L46.5 27.0Q45.8 27.0 45.5 27.1Q45.1 27.2 45.0 27.5Q44.9 27.7 44.9 28.1L44.9 28.1ZM53.9 22.2L53.9 20.2L56.0 20.2L56.0 22.2L53.9 22.2ZM51.9 30.4L51.9 28.9L54.3 28.9L54.3 24.5L52.0 24.5L52.0 23.1L56.0 23.1L56.0 28.9L58.3 28.9L58.3 30.4L51.9 30.4ZM63.2 30.5Q61.9 30.5 61.2 30.3Q60.4 30.1 60.1 29.5Q59.9 29.0 59.9 28.0L59.9 28.0L61.6 28.0Q61.6 28.4 61.8 28.6Q61.9 28.9 62.3 29.0Q62.7 29.1 63.4 29.1L63.4 29.1Q64.2 29.1 64.5 28.9Q64.8 28.7 64.8 28.3L64.8 28.3Q64.8 28.0 64.6 27.8Q64.4 27.7 64.0 27.5Q63.6 27.4 62.8 27.2L62.8 27.2Q61.7 27.0 61.1 26.8Q60.5 26.5 60.2 26.1Q60.0 25.7 60.0 25.1L60.0 25.1Q60.0 24.2 60.3 23.7Q60.6 23.3 61.2 23.1Q61.9 22.9 63.2 22.9L63.2 22.9Q64.4 22.9 65.1 23.1Q65.8 23.3 66.1 23.8Q66.3 24.3 66.3 25.2L66.3 25.2L64.7 25.2Q64.6 24.7 64.3 24.5Q64.0 24.3 63.2 24.3L63.2 24.3Q62.3 24.3 62.0 24.5Q61.7 24.6 61.7 25.1L61.7 25.1Q61.7 25.3 62.1 25.5Q62.6 25.6 63.8 25.9L63.8 25.9Q64.9 26.2 65.5 26.5Q66.0 26.7 66.3 27.2Q66.5 27.6 66.5 28.3L66.5 28.3Q66.5 29.2 66.2 29.6Q65.9 30.1 65.2 30.3Q64.5 30.5 63.2 30.5L63.2 30.5ZM68.2 32.2L73.3 19.4L74.9 19.4L69.9 32.2L68.2 32.2ZM76.6 30.4L76.6 20.9L78.4 20.9L78.4 24.6L81.6 24.6L81.6 20.9L83.4 20.9L83.4 30.4L81.6 30.4L81.6 26.2L78.4 26.2L78.4 30.4L76.6 30.4ZM87.7 30.5Q86.7 30.5 86.2 30.3Q85.6 30.1 85.4 29.6Q85.2 29.1 85.2 28.3L85.2 28.3Q85.2 27.2 85.5 26.7Q85.8 26.1 86.6 25.8Q87.3 25.6 88.8 25.6L88.8 25.6L89.9 25.6L89.9 25.5Q89.9 24.8 89.5 24.6Q89.2 24.3 88.4 24.3L88.4 24.3Q87.6 24.3 87.3 24.5Q87.1 24.7 87.1 25.3L87.1 25.3L85.4 25.3Q85.3 24.4 85.6 23.8Q85.9 23.3 86.5 23.1Q87.2 22.9 88.4 22.9L88.4 22.9Q89.6 22.9 90.3 23.1Q90.9 23.4 91.2 23.9Q91.5 24.5 91.5 25.5L91.5 25.5L91.5 30.4L89.9 30.4L89.9 29.5L89.8 29.5Q89.4 30.1 89.0 30.3Q88.5 30.5 87.7 30.5L87.7 30.5ZM86.9 28.1Q86.9 28.7 87.1 28.9Q87.4 29.1 88.0 29.1L88.0 29.1Q88.7 29.1 89.1 28.9Q89.5 28.7 89.7 28.3Q89.8 27.8 89.8 27.0L89.8 27.0L88.5 27.0Q87.8 27.0 87.5 27.1Q87.1 27.2 87 27.5Q86.9 27.7 86.9 28.1L86.9 28.1ZM93.6 30.4L93.6 23.1L95.3 23.1L95.3 24.1L95.4 24.1Q95.8 23.4 96.2 23.1Q96.6 22.9 97.4 22.9L97.4 22.9Q98.4 22.9 99.0 23.2Q99.6 23.4 99.8 24.0Q100.1 24.6 100.1 25.8L100.1 25.8L100.1 30.4L98.4 30.4L98.4 25.7Q98.4 25.0 98.1 24.7Q97.8 24.4 97.0 24.4L97.0 24.4Q96.3 24.4 96.0 24.6Q95.6 24.8 95.4 25.3Q95.3 25.7 95.3 26.6L95.3 26.6L95.3 30.4L93.6 30.4ZM104.6 30.5Q103.5 30.5 102.8 30.2Q102.1 29.8 101.9 29.0Q101.6 28.2 101.6 26.7L101.6 26.7Q101.6 25.2 101.9 24.4Q102.1 23.6 102.8 23.2Q103.5 22.9 104.6 22.9L104.6 22.9Q105.6 22.9 106.0 23.1Q106.4 23.3 106.6 23.8L106.6 23.8L106.7 23.8L106.7 20.2L108.4 20.2L108.4 30.4L106.7 30.4L106.7 29.6L106.6 29.6Q106.3 30.1 105.9 30.3Q105.5 30.5 104.6 30.5L104.6 30.5ZM103.3 26.7Q103.3 27.6 103.5 28.1Q103.6 28.6 104.0 28.8Q104.4 29.1 105.1 29.1L105.1 29.1Q105.8 29.1 106.1 28.8Q106.5 28.6 106.6 28.1Q106.8 27.6 106.8 26.7L106.8 26.7Q106.8 25.8 106.6 25.3Q106.5 24.8 106.1 24.6Q105.8 24.4 105.1 24.4L105.1 24.4Q104.4 24.4 104.0 24.6Q103.6 24.8 103.5 25.3Q103.3 25.8 103.3 26.7L103.3 26.7ZM111.7 33.4L112.9 29.7L112.5 29.7L110.1 23.1L111.8 23.1L113.6 28.5L113.6 28.5L115.4 23.1L117.1 23.1L113.5 33.4L111.7 33.4Z "/><mask id="satori_om-id-1"><rect x="17" y="43" width="306" height="26" fill="#fff"/></mask><mask id="satori_om-id-1-0"><rect x="17" y="48" width="55" height="16" fill="#fff"/></mask><path x="17" y="48" width="55" height="16" fill="#3fb950" d="M25,48 h39 a8,8 0 0 1 8,8 v0 a8,8 0 0 1 -8,8 h-39 a8,8 0 0 1 -8,-8 v0 a8,8 0 0 1 8,-8"/><path fill="#000" d="M27.3 59.6L27.3 54.3L28.3 54.3L28.3 55.0L28.4 55.0Q28.6 54.5 28.8 54.4Q29.0 54.2 29.4 54.2L29.4 54.2Q29.9 54.2 30.1 54.4Q30.3 54.5 30.5 55.0L30.5 55.0L30.5 55.0Q30.6 54.5 30.8 54.4Q31.1 54.2 31.5 54.2L31.5 54.2Q32 54.2 32.3 54.4Q32.5 54.6 32.6 55.0Q32.7 55.4 32.7 56.2L32.7 56.2L32.7 59.6L31.6 59.6L31.6 56.4Q31.6 55.8 31.5 55.5Q31.4 55.3 31.1 55.3L31.1 55.3Q30.9 55.3 30.8 55.4Q30.6 55.5 30.6 55.8Q30.6 56.1 30.6 56.6L30.6 56.6L30.6 59.6L29.4 59.6L29.5 56.4Q29.5 55.8 29.4 55.5Q29.2 55.3 28.9 55.3L28.9 55.3Q28.7 55.3 28.6 55.4Q28.4 55.5 28.4 55.8Q28.4 56.1 28.4 56.6L28.4 56.6L28.4 59.6L27.3 59.6ZM36.1 59.7Q35.1 59.7 34.6 59.4Q34.0 59.2 33.8 58.6Q33.6 58.0 33.6 56.9L33.6 56.9Q33.6 55.8 33.8 55.3Q34.0 54.7 34.5 54.5Q35.1 54.2 36.0 54.2L36.0 54.2Q36.9 54.2 37.4 54.5Q37.9 54.7 38.2 55.3Q38.4 55.9 38.4 57.0L38.4 57.0L38.4 57.4L34.8 57.4Q34.9 57.9 35.0 58.1Q35.1 58.4 35.4 58.5Q35.6 58.6 36.1 58.6L36.1 58.6Q36.5 58.6 36.7 58.5Q36.9 58.3 37.1 58.0L37.1 58.0L38.3 58.0Q38.2 58.6 38.0 59.0Q37.7 59.3 37.3 59.5Q36.9 59.7 36.1 59.7L36.1 59.7ZM34.8 56.4L37.2 56.4Q37.2 55.8 36.9 55.5Q36.7 55.2 36.0 55.2L36.0 55.2Q35.4 55.2 35.1 55.5Q34.8 55.8 34.8 56.4L34.8 56.4ZM40.3 59.6L40.3 54.3L41.4 54.3L41.4 55.4L41.5 55.4Q41.9 54.8 42.0 54.6Q42.2 54.4 42.4 54.3Q42.5 54.3 43.0 54.3L43.0 54.3L44.0 54.3L44.0 55.5Q43.8 55.5 43.5 55.5L43.5 55.5Q42.9 55.5 42.5 55.6L42.5 55.6Q42.3 55.6 42.0 55.8Q41.8 56.0 41.7 56.4Q41.5 56.7 41.5 57.0L41.5 57.0L41.5 59.6L40.3 59.6ZM48.0 61.8Q47.1 61.8 46.6 61.6Q46.1 61.4 45.9 61.1Q45.7 60.7 45.7 60L45.7 60L46.9 60Q47.0 60.3 47.0 60.5Q47.1 60.6 47.4 60.7Q47.6 60.8 48.0 60.8L48.0 60.8Q48.5 60.8 48.7 60.7Q49.0 60.6 49.1 60.3Q49.2 60.1 49.2 59.6L49.2 59.6L49.2 58.9L49.1 58.9Q49.0 59.2 48.8 59.3Q48.6 59.5 48.4 59.5Q48.1 59.6 47.7 59.6L47.7 59.6Q46.8 59.6 46.4 59.4Q45.9 59.1 45.7 58.5Q45.5 58.0 45.5 57.0L45.5 57.0Q45.5 55.9 45.7 55.3Q45.9 54.7 46.4 54.5Q46.9 54.2 47.8 54.2L47.8 54.2Q48.4 54.2 48.7 54.4Q48.9 54.5 49.1 55.0L49.1 55.0L49.2 55.0L49.2 54.3L50.4 54.3L50.4 59.7Q50.4 60.5 50.2 61.0Q50.0 61.4 49.5 61.6Q49.0 61.8 48.0 61.8L48.0 61.8ZM46.7 57.0Q46.7 57.6 46.8 57.9Q47.0 58.3 47.2 58.4Q47.5 58.6 48.0 58.6L48.0 58.6Q48.4 58.6 48.7 58.4Q49.0 58.3 49.1 57.9Q49.2 57.6 49.2 57.0L49.2 57.0Q49.2 56.3 49.1 55.9Q49.0 55.6 48.7 55.4Q48.4 55.3 48.0 55.3L48.0 55.3Q47.5 55.3 47.2 55.4Q47.0 55.6 46.8 55.9Q46.7 56.3 46.7 57.0L46.7 57.0ZM54.1 59.7Q53.1 59.7 52.6 59.4Q52.0 59.2 51.8 58.6Q51.6 58.0 51.6 56.9L51.6 56.9Q51.6 55.8 51.8 55.3Q52.0 54.7 52.5 54.5Q53.1 54.2 54.0 54.2L54.0 54.2Q54.9 54.2 55.4 54.5Q55.9 54.7 56.2 55.3Q56.4 55.9 56.4 57.0L56.4 57.0L56.4 57.4L52.8 57.4Q52.9 57.9 53.0 58.1Q53.1 58.4 53.4 58.5Q53.6 58.6 54.1 58.6L54.1 58.6Q54.5 58.6 54.7 58.5Q54.9 58.3 55.1 58.0L55.1 58.0L56.3 58.0Q56.2 58.6 56.0 59.0Q55.7 59.3 55.3 59.5Q54.9 59.7 54.1 59.7L54.1 59.7ZM52.8 56.4L55.2 56.4Q55.2 55.8 54.9 55.5Q54.7 55.2 54.0 55.2L54.0 55.2Q53.4 55.2 53.1 55.5Q52.8 55.8 52.8 56.4L52.8 56.4ZM59.6 59.7Q58.8 59.7 58.3 59.4Q57.8 59.2 57.6 58.6Q57.4 58 57.4 56.9L57.4 56.9Q57.4 55.9 57.6 55.3Q57.8 54.7 58.3 54.5Q58.8 54.2 59.6 54.2L59.6 54.2Q60.3 54.2 60.6 54.3Q60.9 54.5 61.0 54.8L61.0 54.8L61.1 54.8L61.1 52.3L62.3 52.3L62.3 59.6L61.1 59.6L61.1 59.0L61.0 59.0Q60.8 59.4 60.5 59.5Q60.2 59.7 59.6 59.7L59.6 59.7ZM58.7 56.9Q58.7 57.6 58.8 57.9Q58.9 58.3 59.2 58.5Q59.4 58.6 60.0 58.6L60.0 58.6Q60.4 58.6 60.7 58.5Q60.9 58.3 61.0 57.9Q61.1 57.6 61.1 56.9L61.1 56.9Q61.1 56.3 61.0 55.9Q60.9 55.6 60.7 55.4Q60.4 55.3 60.0 55.3L60.0 55.3Q59.4 55.3 59.2 55.4Q58.9 55.6 58.8 55.9Q58.7 56.3 58.7 56.9L58.7 56.9Z "/><mask id="satori_om-id-1-1"><rect x="80" y="43" width="243" height="26" fill="#fff"/></mask><path fill="#8b949e" d="M80.5 53.5L82.6 46.0L84.0 46.0L86.2 53.5L85.2 53.5L84.7 51.6L81.9 51.6L81.4 53.5L80.5 53.5ZM82.1 50.8L84.5 50.8L83.4 46.8L83.3 46.8L82.1 50.8ZM89.4 53.6Q88.7 53.6 88.3 53.4Q87.9 53.2 87.7 52.8Q87.6 52.3 87.6 51.4L87.6 51.4L87.6 47.8L88.5 47.8L88.5 51.5Q88.5 52.0 88.6 52.3Q88.7 52.6 89.0 52.7Q89.2 52.8 89.6 52.8L89.6 52.8Q90.3 52.8 90.6 52.6Q91.0 52.4 91.1 52.0Q91.3 51.5 91.3 50.7L91.3 50.7L91.3 47.8L92.2 47.8L92.2 53.5L91.3 53.5L91.3 52.7L91.2 52.7Q90.9 53.2 90.5 53.4Q90.2 53.6 89.4 53.6L89.4 53.6ZM97.2 53.6Q96.5 53.6 96.1 53.4Q95.8 53.3 95.7 52.9Q95.5 52.5 95.5 51.8L95.5 51.8L95.5 48.6L94.0 48.6L94.3 47.8L95.6 47.8L95.6 46.5L96.4 46.1L96.4 47.8L98.4 47.8L98.4 48.6L96.4 48.6L96.4 51.7Q96.4 52.1 96.5 52.4Q96.6 52.6 96.8 52.7Q97.1 52.8 97.5 52.8L97.5 52.8Q98.0 52.8 98.7 52.7L98.7 52.7L98.7 53.5Q97.7 53.6 97.2 53.6L97.2 53.6ZM103.1 53.6Q102.1 53.6 101.6 53.4Q101.1 53.1 100.9 52.4Q100.6 51.8 100.6 50.6L100.6 50.6Q100.6 49.4 100.9 48.8Q101.1 48.2 101.6 47.9Q102.1 47.6 103.1 47.6L103.1 47.6Q104.1 47.6 104.6 47.9Q105.1 48.2 105.3 48.8Q105.6 49.5 105.6 50.6L105.6 50.6Q105.6 51.8 105.3 52.4Q105.1 53.1 104.6 53.4Q104.1 53.6 103.1 53.6L103.1 53.6ZM101.6 50.6Q101.6 51.5 101.7 52.0Q101.8 52.4 102.2 52.6Q102.5 52.8 103.1 52.8L103.1 52.8Q103.7 52.8 104.0 52.6Q104.4 52.4 104.5 52.0Q104.6 51.5 104.6 50.6L104.6 50.6Q104.6 49.8 104.5 49.3Q104.4 48.8 104.0 48.6Q103.7 48.4 103.1 48.4L103.1 48.4Q102.5 48.4 102.2 48.6Q101.8 48.8 101.7 49.3Q101.6 49.8 101.6 50.6L101.6 50.6ZM107.8 50.7L107.8 49.8L111.6 49.8L111.6 50.7L107.8 50.7ZM116.3 53.6Q115.4 53.6 114.9 53.5Q114.4 53.3 114.2 52.9Q114.0 52.6 114.0 51.9L114.0 51.9L114.9 51.9Q114.9 52.3 115.1 52.5Q115.2 52.6 115.5 52.7Q115.8 52.8 116.4 52.8L116.4 52.8Q116.9 52.8 117.2 52.7Q117.5 52.7 117.6 52.5Q117.7 52.3 117.7 52.0L117.7 52.0Q117.7 51.7 117.5 51.5Q117.4 51.3 117.0 51.2Q116.7 51.0 116.0 50.9L116.0 50.9Q115.2 50.7 114.8 50.5Q114.4 50.3 114.2 50.0Q114.0 49.7 114.0 49.2L114.0 49.2Q114.0 48.6 114.2 48.3Q114.4 47.9 114.9 47.8Q115.4 47.6 116.3 47.6L116.3 47.6Q117.1 47.6 117.6 47.8Q118.0 47.9 118.2 48.2Q118.4 48.5 118.5 49.1L118.5 49.1L117.6 49.1Q117.5 48.7 117.2 48.6Q117.0 48.4 116.3 48.4L116.3 48.4Q115.7 48.4 115.5 48.5Q115.2 48.6 115.1 48.8Q114.9 48.9 114.9 49.3L114.9 49.3Q114.9 49.4 115.1 49.6Q115.3 49.7 115.6 49.9Q116.0 50.0 116.7 50.2L116.7 50.2Q117.5 50.4 117.9 50.6Q118.3 50.8 118.4 51.1Q118.6 51.4 118.6 52.0L118.6 52.0Q118.6 52.6 118.4 53.0Q118.2 53.3 117.7 53.5Q117.2 53.6 116.3 53.6L116.3 53.6ZM122.4 53.6Q121.7 53.6 121.3 53.4Q120.9 53.2 120.7 52.8Q120.6 52.3 120.6 51.4L120.6 51.4L120.6 47.8L121.5 47.8L121.5 51.5Q121.5 52.0 121.6 52.3Q121.7 52.6 122.0 52.7Q122.2 52.8 122.6 52.8L122.6 52.8Q123.3 52.8 123.6 52.6Q124.0 52.4 124.1 52.0Q124.3 51.5 124.3 50.7L124.3 50.7L124.3 47.8L125.2 47.8L125.2 53.5L124.3 53.5L124.3 52.7L124.2 52.7Q123.9 53.2 123.5 53.4Q123.2 53.6 122.4 53.6L122.4 53.6ZM129.7 53.6Q129.2 53.6 128.8 53.5Q128.5 53.3 128.2 52.9L128.2 52.9L128.1 52.9L128.1 53.5L127.2 53.5L127.2 45.5L128.1 45.5L128.1 48.4L128.2 48.4Q128.5 47.9 128.8 47.8Q129.1 47.6 129.8 47.6L129.8 47.6Q130.7 47.6 131.1 47.9Q131.6 48.2 131.8 48.8Q132.0 49.4 132.0 50.6L132.0 50.6Q132.0 51.8 131.8 52.4Q131.6 53.1 131.1 53.4Q130.6 53.6 129.7 53.6L129.7 53.6ZM128.1 50.6Q128.1 51.5 128.2 51.9Q128.4 52.4 128.7 52.6Q129.0 52.8 129.5 52.8L129.5 52.8Q130.2 52.8 130.5 52.6Q130.8 52.4 131.0 51.9Q131.1 51.5 131.1 50.6L131.1 50.6Q131.1 49.8 131.0 49.3Q130.8 48.9 130.5 48.7Q130.2 48.5 129.5 48.5L129.5 48.5Q129.0 48.5 128.7 48.7Q128.4 48.9 128.2 49.3Q128.1 49.8 128.1 50.6L128.1 50.6ZM133.3 53.5L133.3 47.8L134.1 47.8L134.1 48.5L134.2 48.5Q134.4 48.0 134.6 47.8Q134.9 47.6 135.3 47.6L135.3 47.6Q135.8 47.6 136.0 47.8Q136.3 48.0 136.4 48.5L136.4 48.5L136.5 48.5Q136.7 48.0 136.9 47.8Q137.2 47.6 137.6 47.6L137.6 47.6Q138.1 47.6 138.4 47.8Q138.7 48.0 138.8 48.5Q138.9 49.0 138.9 49.8L138.9 49.8L138.9 53.5L138.0 53.5L138.0 50.0Q138.0 49.4 138.0 49.1Q137.9 48.8 137.7 48.6Q137.6 48.5 137.3 48.5L137.3 48.5Q137.0 48.5 136.8 48.6Q136.7 48.8 136.6 49.1Q136.5 49.5 136.5 50.2L136.5 50.2L136.5 53.5L135.7 53.5L135.7 50.0Q135.7 49.1 135.5 48.8Q135.3 48.5 134.9 48.5L134.9 48.5Q134.6 48.5 134.5 48.6Q134.3 48.8 134.2 49.2Q134.2 49.6 134.2 50.2L134.2 50.2L134.2 53.5L133.3 53.5ZM142.1 46.8L142.1 45.5L143.4 45.5L143.4 46.8L142.1 46.8ZM140.6 53.5L140.6 52.7L142.5 52.7L142.5 48.6L140.8 48.6L140.8 47.8L143.4 47.8L143.4 52.7L145.2 52.7L145.2 53.5L140.6 53.5ZM150.0 53.6Q149.3 53.6 148.9 53.4Q148.6 53.3 148.5 52.9Q148.3 52.5 148.3 51.8L148.3 51.8L148.3 48.6L146.8 48.6L147.1 47.8L148.4 47.8L148.4 46.5L149.2 46.1L149.2 47.8L151.2 47.8L151.2 48.6L149.2 48.6L149.2 51.7Q149.2 52.1 149.3 52.4Q149.4 52.6 149.6 52.7Q149.9 52.8 150.3 52.8L150.3 52.8Q150.8 52.8 151.5 52.7L151.5 52.7L151.5 53.5Q150.5 53.6 150.0 53.6L150.0 53.6Z M161.9 53.6Q161.2 53.6 160.9 53.5Q160.5 53.3 160.3 53.0Q160.2 52.6 160.2 51.9L160.2 51.9Q160.2 51.1 160.4 50.7Q160.6 50.3 161.2 50.1Q161.7 49.9 162.7 49.9L162.7 49.9L163.7 49.9L163.7 49.6Q163.7 49.2 163.6 48.9Q163.5 48.7 163.2 48.5Q163.0 48.4 162.4 48.4L162.4 48.4Q161.8 48.4 161.5 48.6Q161.3 48.8 161.3 49.3L161.3 49.3L160.3 49.3Q160.3 48.6 160.5 48.3Q160.7 47.9 161.2 47.8Q161.6 47.6 162.4 47.6L162.4 47.6Q163.3 47.6 163.8 47.8Q164.2 48.0 164.4 48.4Q164.6 48.8 164.6 49.6L164.6 49.6L164.6 53.5L163.8 53.5L163.8 52.8L163.7 52.8Q163.4 53.3 163.0 53.4Q162.7 53.6 161.9 53.6L161.9 53.6ZM161.1 51.8Q161.1 52.4 161.3 52.6Q161.5 52.8 162.2 52.8L162.2 52.8Q162.8 52.8 163.1 52.6Q163.4 52.4 163.6 52.0Q163.7 51.5 163.7 50.7L163.7 50.7L162.5 50.7Q161.9 50.7 161.6 50.8Q161.3 50.9 161.2 51.1Q161.1 51.4 161.1 51.8L161.1 51.8ZM168.4 53.5L168.4 48.6L166.9 48.6L166.7 47.8L168.4 47.8L168.4 47.0Q168.4 46.3 168.6 46.0Q168.8 45.6 169.3 45.4Q169.7 45.3 170.6 45.3L170.6 45.3Q170.8 45.3 171.3 45.3L171.3 45.3L171.3 46.1Q171.2 46.1 170.8 46.1L170.8 46.1Q170.2 46.1 169.9 46.2Q169.5 46.3 169.4 46.5Q169.2 46.7 169.2 47.0L169.2 47.0L169.2 47.8L171.2 47.8L171.2 48.6L169.2 48.6L169.2 53.5L168.4 53.5ZM176.4 53.6Q175.7 53.6 175.3 53.4Q175.0 53.3 174.9 52.9Q174.7 52.5 174.7 51.8L174.7 51.8L174.7 48.6L173.2 48.6L173.5 47.8L174.8 47.8L174.8 46.5L175.6 46.1L175.6 47.8L177.6 47.8L177.6 48.6L175.6 48.6L175.6 51.7Q175.6 52.1 175.7 52.4Q175.8 52.6 176.0 52.7Q176.3 52.8 176.7 52.8L176.7 52.8Q177.2 52.8 177.9 52.7L177.9 52.7L177.9 53.5Q176.9 53.6 176.4 53.6L176.4 53.6ZM182.4 53.6Q181.4 53.6 180.9 53.4Q180.3 53.1 180.1 52.5Q179.9 51.8 179.9 50.6L179.9 50.6Q179.9 49.4 180.1 48.8Q180.4 48.2 180.9 47.9Q181.4 47.6 182.3 47.6L182.3 47.6Q183.3 47.6 183.8 47.9Q184.3 48.2 184.5 48.9Q184.7 49.6 184.6 51.0L184.6 51.0L180.8 51.0Q180.9 51.7 181.0 52.1Q181.2 52.5 181.5 52.7Q181.8 52.8 182.4 52.8L182.4 52.8Q182.9 52.8 183.2 52.7Q183.4 52.5 183.6 52.0L183.6 52.0L184.5 52.0Q184.4 52.7 184.2 53.0Q183.9 53.4 183.5 53.5Q183.1 53.6 182.4 53.6L182.4 53.6ZM180.8 50.2L183.8 50.2Q183.7 49.5 183.6 49.1Q183.5 48.8 183.2 48.6Q182.8 48.5 182.3 48.5L182.3 48.5Q181.8 48.5 181.5 48.6Q181.2 48.8 181.0 49.1Q180.9 49.5 180.8 50.2L180.8 50.2ZM187.4 53.5L187.4 47.8L188.3 47.8L188.3 49.1L188.4 49.1Q188.7 48.4 188.9 48.2Q189.0 47.9 189.3 47.8Q189.5 47.8 190.0 47.7L190.0 47.7L190.5 47.7Q190.7 47.7 191.1 47.8L191.1 47.8L191.1 48.6Q190.8 48.6 190.4 48.6L190.4 48.6Q190.0 48.6 189.7 48.6L189.7 48.6Q189.4 48.7 189.1 49.0Q188.8 49.3 188.5 49.7Q188.3 50.1 188.3 50.6L188.3 50.6L188.3 53.5L187.4 53.5Z M202.8 53.6Q202.1 53.6 201.7 53.4Q201.4 53.3 201.3 52.9Q201.1 52.5 201.1 51.8L201.1 51.8L201.1 48.6L199.6 48.6L199.9 47.8L201.2 47.8L201.2 46.5L202.0 46.1L202.0 47.8L204.0 47.8L204.0 48.6L202.0 48.6L202.0 51.7Q202.0 52.1 202.1 52.4Q202.2 52.6 202.4 52.7Q202.7 52.8 203.1 52.8L203.1 52.8Q203.6 52.8 204.3 52.7L204.3 52.7L204.3 53.5Q203.3 53.6 202.8 53.6L202.8 53.6ZM207.2 53.5L207.2 47.8L208.1 47.8L208.1 49.1L208.2 49.1Q208.5 48.4 208.7 48.2Q208.8 47.9 209.1 47.8Q209.3 47.8 209.8 47.7L209.8 47.7L210.3 47.7Q210.5 47.7 210.9 47.8L210.9 47.8L210.9 48.6Q210.6 48.6 210.2 48.6L210.2 48.6Q209.8 48.6 209.5 48.6L209.5 48.6Q209.2 48.7 208.9 49.0Q208.6 49.3 208.3 49.7Q208.1 50.1 208.1 50.6L208.1 50.6L208.1 53.5L207.2 53.5ZM214.7 53.6Q214.0 53.6 213.7 53.5Q213.3 53.3 213.1 53.0Q213.0 52.6 213.0 51.9L213.0 51.9Q213.0 51.1 213.2 50.7Q213.4 50.3 214.0 50.1Q214.5 49.9 215.5 49.9L215.5 49.9L216.5 49.9L216.5 49.6Q216.5 49.2 216.4 48.9Q216.3 48.7 216.0 48.5Q215.8 48.4 215.2 48.4L215.2 48.4Q214.6 48.4 214.3 48.6Q214.1 48.8 214.1 49.3L214.1 49.3L213.1 49.3Q213.1 48.6 213.3 48.3Q213.5 47.9 214.0 47.8Q214.4 47.6 215.2 47.6L215.2 47.6Q216.1 47.6 216.6 47.8Q217.0 48.0 217.2 48.4Q217.4 48.8 217.4 49.6L217.4 49.6L217.4 53.5L216.6 53.5L216.6 52.8L216.5 52.8Q216.2 53.3 215.8 53.4Q215.5 53.6 214.7 53.6L214.7 53.6ZM213.9 51.8Q213.9 52.4 214.1 52.6Q214.3 52.8 215.0 52.8L215.0 52.8Q215.6 52.8 215.9 52.6Q216.2 52.4 216.4 52.0Q216.5 51.5 216.5 50.7L216.5 50.7L215.3 50.7Q214.7 50.7 214.4 50.8Q214.1 50.9 214.0 51.1Q213.9 51.4 213.9 51.8L213.9 51.8ZM219.6 53.5L219.6 47.8L220.5 47.8L220.5 48.6L220.6 48.6Q220.8 48.0 221.2 47.8Q221.6 47.6 222.3 47.6L222.3 47.6Q223.1 47.6 223.5 47.8Q223.8 48.0 224.0 48.5Q224.2 49.0 224.2 49.8L224.2 49.8L224.2 53.5L223.3 53.5L223.3 49.8Q223.3 49.3 223.2 49.0Q223.0 48.7 222.8 48.6Q222.5 48.5 222.0 48.5L222.0 48.5Q221.4 48.5 221.1 48.7Q220.8 48.9 220.7 49.3Q220.5 49.7 220.5 50.5L220.5 50.5L220.5 53.5L219.6 53.5ZM228.5 53.6Q227.6 53.6 227.1 53.5Q226.6 53.3 226.4 52.9Q226.2 52.6 226.2 51.9L226.2 51.9L227.1 51.9Q227.1 52.3 227.3 52.5Q227.4 52.6 227.7 52.7Q228.0 52.8 228.6 52.8L228.6 52.8Q229.1 52.8 229.4 52.7Q229.7 52.7 229.8 52.5Q229.9 52.3 229.9 52.0L229.9 52.0Q229.9 51.7 229.7 51.5Q229.6 51.3 229.2 51.2Q228.9 51.0 228.2 50.9L228.2 50.9Q227.4 50.7 227.0 50.5Q226.6 50.3 226.4 50.0Q226.2 49.7 226.2 49.2L226.2 49.2Q226.2 48.6 226.4 48.3Q226.6 47.9 227.1 47.8Q227.6 47.6 228.5 47.6L228.5 47.6Q229.3 47.6 229.8 47.8Q230.2 47.9 230.4 48.2Q230.6 48.5 230.7 49.1L230.7 49.1L229.8 49.1Q229.7 48.7 229.4 48.6Q229.2 48.4 228.5 48.4L228.5 48.4Q227.9 48.4 227.7 48.5Q227.4 48.6 227.3 48.8Q227.1 48.9 227.1 49.3L227.1 49.3Q227.1 49.4 227.3 49.6Q227.5 49.7 227.8 49.9Q228.2 50.0 228.9 50.2L228.9 50.2Q229.7 50.4 230.1 50.6Q230.5 50.8 230.6 51.1Q230.8 51.4 230.8 52.0L230.8 52.0Q230.8 52.6 230.6 53.0Q230.4 53.3 229.9 53.5Q229.4 53.6 228.5 53.6L228.5 53.6ZM235.3 53.6Q234.3 53.6 233.8 53.4Q233.2 53.1 233.0 52.5Q232.8 51.8 232.8 50.6L232.8 50.6Q232.8 49.5 233.0 48.8Q233.2 48.2 233.8 47.9Q234.3 47.6 235.3 47.6L235.3 47.6Q236.1 47.6 236.5 47.8Q237.0 48.0 237.2 48.4Q237.4 48.7 237.4 49.5L237.4 49.5L236.5 49.5Q236.4 48.9 236.2 48.7Q235.9 48.5 235.3 48.5L235.3 48.5Q234.7 48.5 234.3 48.7Q234.0 48.9 233.9 49.3Q233.7 49.8 233.7 50.7L233.7 50.7Q233.7 51.5 233.9 52.0Q234.0 52.4 234.3 52.6Q234.7 52.8 235.3 52.8L235.3 52.8Q235.9 52.8 236.2 52.6Q236.4 52.4 236.5 51.9L236.5 51.9L237.4 51.9Q237.4 52.6 237.2 53.0Q237.0 53.3 236.5 53.5Q236.1 53.6 235.3 53.6L235.3 53.6ZM240.2 53.5L240.2 47.8L241.1 47.8L241.1 49.1L241.2 49.1Q241.5 48.4 241.7 48.2Q241.8 47.9 242.1 47.8Q242.3 47.8 242.8 47.7L242.8 47.7L243.3 47.7Q243.5 47.7 243.9 47.8L243.9 47.8L243.9 48.6Q243.6 48.6 243.2 48.6L243.2 48.6Q242.8 48.6 242.5 48.6L242.5 48.6Q242.2 48.7 241.9 49.0Q241.6 49.3 241.3 49.7Q241.1 50.1 241.1 50.6L241.1 50.6L241.1 53.5L240.2 53.5ZM247.7 46.8L247.7 45.5L249.0 45.5L249.0 46.8L247.7 46.8ZM246.2 53.5L246.2 52.7L248.1 52.7L248.1 48.6L246.4 48.6L246.4 47.8L249.0 47.8L249.0 52.7L250.8 52.7L250.8 53.5L246.2 53.5ZM252.6 55.9L252.6 47.8L253.5 47.8L253.5 48.4L253.6 48.4Q253.9 47.9 254.2 47.8Q254.6 47.6 255.1 47.6L255.1 47.6Q256.0 47.6 256.5 47.9Q257.0 48.2 257.2 48.8Q257.4 49.4 257.4 50.6L257.4 50.6Q257.4 51.8 257.2 52.4Q257.0 53.1 256.5 53.4Q256.1 53.6 255.2 53.6L255.2 53.6Q254.5 53.6 254.2 53.5Q253.9 53.3 253.6 52.9L253.6 52.9L253.5 52.9L253.5 55.9L252.6 55.9ZM253.5 50.6Q253.5 51.5 253.6 52.0Q253.8 52.4 254.1 52.6Q254.4 52.8 254.9 52.8L254.9 52.8Q255.5 52.8 255.9 52.6Q256.2 52.4 256.4 51.9Q256.5 51.5 256.5 50.6L256.5 50.6Q256.5 49.8 256.4 49.3Q256.2 48.9 255.9 48.7Q255.5 48.5 254.9 48.5L254.9 48.5Q254.4 48.5 254.1 48.6Q253.8 48.8 253.6 49.3Q253.5 49.8 253.5 50.6L253.5 50.6ZM262.2 53.6Q261.5 53.6 261.1 53.4Q260.8 53.3 260.7 52.9Q260.5 52.5 260.5 51.8L260.5 51.8L260.5 48.6L259.0 48.6L259.3 47.8L260.6 47.8L260.6 46.5L261.4 46.1L261.4 47.8L263.4 47.8L263.4 48.6L261.4 48.6L261.4 51.7Q261.4 52.1 261.5 52.4Q261.6 52.6 261.8 52.7Q262.1 52.8 262.5 52.8L262.5 52.8Q263.0 52.8 263.7 52.7L263.7 52.7L263.7 53.5Q262.7 53.6 262.2 53.6L262.2 53.6ZM267.6 46.8L267.6 45.5L268.8 45.5L268.8 46.8L267.6 46.8ZM266.0 53.5L266.0 52.7L267.9 52.7L267.9 48.6L266.2 48.6L266.2 47.8L268.8 47.8L268.8 52.7L270.6 52.7L270.6 53.5L266.0 53.5ZM274.7 53.6Q273.7 53.6 273.2 53.4Q272.7 53.1 272.5 52.4Q272.2 51.8 272.2 50.6L272.2 50.6Q272.2 49.4 272.5 48.8Q272.7 48.2 273.2 47.9Q273.7 47.6 274.7 47.6L274.7 47.6Q275.7 47.6 276.2 47.9Q276.7 48.2 276.9 48.8Q277.2 49.5 277.2 50.6L277.2 50.6Q277.2 51.8 276.9 52.4Q276.7 53.1 276.2 53.4Q275.7 53.6 274.7 53.6L274.7 53.6ZM273.2 50.6Q273.2 51.5 273.3 52.0Q273.4 52.4 273.8 52.6Q274.1 52.8 274.7 52.8L274.7 52.8Q275.3 52.8 275.6 52.6Q276.0 52.4 276.1 52.0Q276.2 51.5 276.2 50.6L276.2 50.6Q276.2 49.8 276.1 49.3Q276.0 48.8 275.6 48.6Q275.3 48.4 274.7 48.4L274.7 48.4Q274.1 48.4 273.8 48.6Q273.4 48.8 273.3 49.3Q273.2 49.8 273.2 50.6L273.2 50.6ZM279.0 53.5L279.0 47.8L279.9 47.8L279.9 48.6L280.0 48.6Q280.2 48.0 280.6 47.8Q281.0 47.6 281.7 47.6L281.7 47.6Q282.5 47.6 282.9 47.8Q283.2 48.0 283.4 48.5Q283.6 49.0 283.6 49.8L283.6 49.8L283.6 53.5L282.7 53.5L282.7 49.8Q282.7 49.3 282.6 49.0Q282.4 48.7 282.2 48.6Q281.9 48.5 281.4 48.5L281.4 48.5Q280.8 48.5 280.5 48.7Q280.2 48.9 280.1 49.3Q279.9 49.7 279.9 50.5L279.9 50.5L279.9 53.5L279.0 53.5Z M81.0 69.1L81.0 61.0L81.9 61.0L81.9 61.6L82.0 61.6Q82.3 61.1 82.6 61.0Q83.0 60.8 83.5 60.8L83.5 60.8Q84.4 60.8 84.9 61.1Q85.4 61.4 85.6 62.0Q85.8 62.6 85.8 63.8L85.8 63.8Q85.8 65.0 85.6 65.6Q85.4 66.3 84.9 66.6Q84.5 66.8 83.6 66.8L83.6 66.8Q82.9 66.8 82.6 66.7Q82.3 66.5 82.0 66.1L82.0 66.1L81.9 66.1L81.9 69.1L81.0 69.1ZM81.9 63.8Q81.9 64.7 82.0 65.2Q82.2 65.6 82.5 65.8Q82.8 66.0 83.3 66.0L83.3 66.0Q83.9 66.0 84.3 65.8Q84.6 65.6 84.8 65.1Q84.9 64.7 84.9 63.8L84.9 63.8Q84.9 63.0 84.8 62.5Q84.6 62.1 84.3 61.9Q83.9 61.7 83.3 61.7L83.3 61.7Q82.8 61.7 82.5 61.8Q82.2 62.0 82.0 62.5Q81.9 63.0 81.9 63.8L81.9 63.8ZM89.3 66.8Q88.6 66.8 88.3 66.7Q87.9 66.5 87.7 66.2Q87.6 65.8 87.6 65.1L87.6 65.1Q87.6 64.3 87.8 63.9Q88.0 63.5 88.6 63.3Q89.1 63.1 90.1 63.1L90.1 63.1L91.1 63.1L91.1 62.8Q91.1 62.4 91.0 62.1Q90.9 61.9 90.6 61.7Q90.4 61.6 89.8 61.6L89.8 61.6Q89.2 61.6 88.9 61.8Q88.7 62.0 88.7 62.5L88.7 62.5L87.7 62.5Q87.7 61.8 87.9 61.5Q88.1 61.1 88.6 61.0Q89.0 60.8 89.8 60.8L89.8 60.8Q90.7 60.8 91.2 61.0Q91.6 61.2 91.8 61.6Q92.0 62.0 92.0 62.8L92.0 62.8L92.0 66.7L91.2 66.7L91.2 66.0L91.1 66.0Q90.8 66.5 90.4 66.6Q90.1 66.8 89.3 66.8L89.3 66.8ZM88.5 65.0Q88.5 65.6 88.7 65.8Q88.9 66.0 89.6 66.0L89.6 66.0Q90.2 66.0 90.5 65.8Q90.8 65.6 91.0 65.2Q91.1 64.7 91.1 63.9L91.1 63.9L89.9 63.9Q89.3 63.9 89.0 64.0Q88.7 64.1 88.6 64.3Q88.5 64.6 88.5 65.0L88.5 65.0ZM96.5 66.8Q95.6 66.8 95.1 66.7Q94.6 66.5 94.4 66.1Q94.2 65.8 94.2 65.1L94.2 65.1L95.1 65.1Q95.1 65.5 95.3 65.7Q95.4 65.8 95.7 65.9Q96.0 66.0 96.6 66.0L96.6 66.0Q97.1 66.0 97.4 65.9Q97.7 65.9 97.8 65.7Q97.9 65.5 97.9 65.2L97.9 65.2Q97.9 64.9 97.7 64.7Q97.6 64.5 97.2 64.4Q96.9 64.2 96.2 64.1L96.2 64.1Q95.4 63.9 95.0 63.7Q94.6 63.5 94.4 63.2Q94.2 62.9 94.2 62.4L94.2 62.4Q94.2 61.8 94.4 61.5Q94.6 61.1 95.1 61.0Q95.6 60.8 96.5 60.8L96.5 60.8Q97.3 60.8 97.8 61.0Q98.2 61.1 98.4 61.4Q98.6 61.7 98.7 62.3L98.7 62.3L97.8 62.3Q97.7 61.9 97.4 61.8Q97.2 61.6 96.5 61.6L96.5 61.6Q95.9 61.6 95.7 61.7Q95.4 61.8 95.3 62.0Q95.1 62.1 95.1 62.5L95.1 62.5Q95.1 62.6 95.3 62.8Q95.5 62.9 95.8 63.1Q96.2 63.2 96.9 63.4L96.9 63.4Q97.7 63.6 98.1 63.8Q98.5 64.0 98.6 64.3Q98.8 64.6 98.8 65.2L98.8 65.2Q98.8 65.8 98.6 66.2Q98.4 66.5 97.9 66.7Q97.4 66.8 96.5 66.8L96.5 66.8ZM103.8 66.8Q103.1 66.8 102.7 66.7Q102.4 66.5 102.3 66.1Q102.1 65.7 102.1 65.0L102.1 65.0L102.1 61.8L100.6 61.8L100.9 61.0L102.2 61.0L102.2 59.7L103.0 59.3L103.0 61.0L105.0 61.0L105.0 61.8L103.0 61.8L103.0 64.9Q103.0 65.3 103.1 65.6Q103.2 65.8 103.4 65.9Q103.7 66.0 104.1 66.0L104.1 66.0Q104.6 66.0 105.3 65.9L105.3 65.9L105.3 66.7Q104.3 66.8 103.8 66.8L103.8 66.8ZM109.8 66.8Q108.8 66.8 108.3 66.6Q107.7 66.3 107.5 65.7Q107.3 65.0 107.3 63.8L107.3 63.8Q107.3 62.6 107.5 62.0Q107.8 61.4 108.3 61.1Q108.8 60.8 109.7 60.8L109.7 60.8Q110.7 60.8 111.2 61.1Q111.7 61.4 111.9 62.1Q112.1 62.8 112.0 64.2L112.0 64.2L108.2 64.2Q108.3 64.9 108.4 65.3Q108.6 65.7 108.9 65.9Q109.2 66.0 109.8 66.0L109.8 66.0Q110.3 66.0 110.6 65.9Q110.8 65.7 111.0 65.2L111.0 65.2L111.9 65.2Q111.8 65.9 111.6 66.2Q111.3 66.6 110.9 66.7Q110.5 66.8 109.8 66.8L109.8 66.8ZM108.2 63.4L111.2 63.4Q111.1 62.7 111.0 62.3Q110.9 62.0 110.6 61.8Q110.2 61.7 109.7 61.7L109.7 61.7Q109.2 61.7 108.9 61.8Q108.6 62.0 108.4 62.3Q108.3 62.7 108.2 63.4L108.2 63.4Z "/></svg>