<svg width="340" height="86" viewBox="0 0 340 86" xmlns="http://www.w3.org/2000/svg"><defs><clipPath id="satori_bc-id"><path x="0" y="0" width="340" height="86" d="M10,0 h320 a10,10 0 0 1 10,10 v66 a10,10 0 0 1 -10,10 h-320 a10,10 0 0 1 -10,-10 v-66 a10,10 0 0 1 10,-10"/></clipPath></defs><mask id="satori_om-id"><rect x="1" y="1" width="338" height="84" fill="#fff"/><path width="340" height="86" fill="none" stroke="#000" stroke-width="2" d="M2.9290000000000003,2.9290000000000003 A10,10 0 0 1 10,0 h320 a10,10 0 0 1 10,10 v66 a10,10 0 0 1 -10,10 h-320 a10,10 0 0 1 -10,-10 v-66 A10,10 0 0 1 2.9290000000000003,2.9290000000000003"/></mask><path x="0" y="0" width="340" height="86" fill="#0d1117" d="M10,0 h320 a10,10 0 0 1 10,10 v66 a10,10 0 0 1 -10,10 h-320 a10,10 0 0 1 -10,-10 v-66 a10,10 0 0 1 10,-10"/><path width="340" height="86" clip-path="url(#satori_bc-id)" fill="none" stroke="#30363d" stroke-width="2" d="M2.9290000000000003,2.9290000000000003 A10,10 0 0 1 10,0 h320 a10,10 0 0 1 10,10 v66 a10,10 0 0 1 -10,10 h-320 a10,10 0 0 1 -10,-10 v-66 A10,10 0 0 1 2.9290000000000003,2.9290000000000003"/><mask id="satori_om-id-0"><rect x="17" y="22" width="306" height="16" fill="#fff"/></mask><path fill="#e6edf3" d="M20.7 27.2L20.7 25.2L22.8 25.2L22.8 27.2L20.7 27.2ZM18.4 38.7L18.4 37.3Q19.6 37.1 20.1 37.0Q20.7 36.8 20.9 36.5Q21.1 36.3 21.1 35.8L21.1 35.8L21.1 29.5L18.9 29.5L18.9 28.1L22.8 28.1L22.8 35.9Q22.8 37.0 22.4 37.5Q22.1 38.1 21.2 38.4Q20.3 38.6 18.4 38.7L18.4 38.7ZM26.3 35.4L26.3 33.9L28.9 33.9L28.9 26.6L26.5 26.6L26.5 25.2L30.6 25.2L30.6 33.9L33.0 33.9L33.0 35.4L26.3 35.4ZM37.1 27.2L37.1 25.2L39.2 25.2L39.2 27.2L37.1 27.2ZM35.1 35.4L35.1 33.9L37.5 33.9L37.5 29.5L35.2 29.5L35.2 28.1L39.2 28.1L39.2 33.9L41.5 33.9L41.5 35.4L35.1 35.4ZM45.7 35.5Q44.7 35.5 44.2 35.3Q43.6 35.1 43.4 34.6Q43.2 34.1 43.2 33.3L43.2 33.3Q43.2 32.2 43.5 31.7Q43.8 31.1 44.6 30.8Q45.3 30.6 46.7 30.6L46.7 30.6L47.9 30.6L47.9 30.5Q47.9 29.8 47.5 29.6Q47.2 29.3 46.4 29.3L46.4 29.3Q45.6 29.3 45.3 29.5Q45.1 29.7 45.1 30.3L45.1 30.3L43.4 30.3Q43.3 29.4 43.6 28.8Q43.9 28.3 44.5 28.1Q45.2 27.9 46.4 27.9L46.4 27.9Q47.6 27.9 48.3 28.1Q48.9 28.4 49.2 28.9Q49.5 29.5 49.5 30.5L49.5 30.5L49.5 35.4L47.9 35.4L47.9 34.5L47.8 34.5Q47.4 35.1 47.0 35.3Q46.5 35.5 45.7 35.5L45.7 35.5ZM44.9 33.1Q44.9 33.7 45.1 33.9Q45.3 34.1 46.0 34.1L46.0 34.1Q46.7 34.1 47.1 33.9Q47.5 33.7 47.7 33.3Q47.8 32.8 47.8 32.0L47.8 32.0L46.5 32.0Q45.8 32.0 45.5 32.1Q45.1 32.2 45.0 32.5Q44.9 32.7 44.9 33.1L44.9 33.1ZM54.8 35.5Q53.7 35.5 53.1 35.3Q52.5 35.2 52.1 34.7Q51.8 34.3 51.6 33.3L51.6 33.3Q51.3 32.1 51.3 30.6L51.3 30.6Q51.3 29.0 51.6 27.9L51.6 27.9Q51.8 27.0 52.2 26.5Q52.5 26.1 53.1 25.9Q53.7 25.7 54.8 25.7L54.8 25.7Q55.9 25.7 56.5 25.9Q57.1 26.1 57.4 26.5Q57.8 27.0 58.0 27.9L58.0 27.9Q58.3 29 58.3 30.7L58.3 30.7Q58.3 31.5 58.2 32.1Q58.2 32.7 58.0 33.3L58.0 33.3Q57.8 34.3 57.4 34.7Q57.1 35.2 56.5 35.3Q55.9 35.5 54.8 35.5L54.8 35.5ZM53.0 30.6Q53.0 31.9 53.2 32.9L53.2 32.9Q53.3 33.4 53.5 33.6Q53.6 33.8 53.9 33.9Q54.2 34.0 54.8 34.0L54.8 34.0Q55.4 34.0 55.7 33.9Q56.0 33.8 56.1 33.6Q56.2 33.4 56.3 32.8L56.3 32.8Q56.5 32.0 56.5 30.6L56.5 30.6Q56.5 29.8 56.5 29.4Q56.5 29.0 56.3 28.4L56.3 28.4Q56.3 27.9 56.1 27.6Q56.0 27.4 55.7 27.3Q55.4 27.2 54.8 27.2L54.8 27.2Q54.2 27.2 53.9 27.3Q53.6 27.4 53.5 27.6Q53.4 27.8 53.2 28.4L53.2 28.4Q53.2 28.8 53.1 29.3Q53.0 29.8 53.0 30.6L53.0 30.6ZM59.8 37.2L64.9 24.4L66.5 24.4L61.5 37.2L59.8 37.2ZM72.5 35.5Q71.5 35.5 71.0 35.3Q70.5 35.0 70.3 34.5Q70.1 34.0 70.1 33.0L70.1 33.0L70.1 29.5L68.3 29.5L68.6 28.1L70.2 28.1L70.2 26.6L71.8 25.9L71.8 28.1L74.5 28.1L74.5 29.5L71.8 29.5L71.8 33.0Q71.8 33.4 71.9 33.6Q71.9 33.9 72.2 34.0Q72.5 34.1 73.0 34.1L73.0 34.1Q73.6 34.1 74.7 33.9L74.7 33.9L74.7 35.4Q73.3 35.5 72.5 35.5L72.5 35.5ZM79.1 27.2L79.1 25.2L81.2 25.2L81.2 27.2L79.1 27.2ZM77.1 35.4L77.1 33.9L79.5 33.9L79.5 29.5L77.2 29.5L77.2 28.1L81.2 28.1L81.2 33.9L83.5 33.9L83.5 35.4L77.1 35.4ZM85.2 35.4L85.2 28.1L86.9 28.1L86.9 29.1L87.0 29.1Q87.4 28.4 87.8 28.1Q88.2 27.9 89.0 27.9L89.0 27.9Q90.0 27.9 90.6 28.2Q91.2 28.4 91.4 29.0Q91.7 29.6 91.7 30.8L91.7 30.8L91.7 35.4L90.0 35.4L90.0 30.7Q90.0 30.0 89.7 29.7Q89.4 29.4 88.6 29.4L88.6 29.4Q87.9 29.4 87.6 29.6Q87.2 29.8 87.0 30.3Q86.9 30.7 86.9 31.6L86.9 31.6L86.9 35.4L85.2 35.4ZM94.9 38.4L96.1 34.7L95.7 34.7L93.3 28.1L95.0 28.1L96.8 33.5L96.8 33.5L98.6 28.1L100.3 28.1L96.7 38.4L94.9 38.4ZM105.5 35.5Q104.1 35.5 103.3 35.2Q102.6 34.8 102.2 34.0Q101.9 33.2 101.9 31.7L101.9 31.7Q101.9 30.2 102.2 29.4Q102.6 28.6 103.3 28.2Q104.1 27.9 105.4 27.9L105.4 27.9Q106.6 27.9 107.3 28.1Q107.9 28.4 108.2 28.9Q108.5 29.5 108.5 30.5L108.5 30.5L106.9 30.5Q106.8 29.9 106.5 29.6Q106.2 29.4 105.5 29.4L105.5 29.4Q104.8 29.4 104.4 29.6Q104.0 29.8 103.8 30.3Q103.6 30.8 103.6 31.8L103.6 31.8Q103.6 32.7 103.8 33.1Q104.0 33.6 104.4 33.8Q104.8 34.0 105.5 34.0L105.5 34.0Q106.2 34.0 106.5 33.8Q106.7 33.6 106.9 33.0L106.9 33.0L108.5 33.0Q108.5 34.0 108.2 34.5Q107.9 35.1 107.3 35.3Q106.6 35.5 105.5 35.5L105.5 35.5ZM110.3 35.4L110.3 33.9L112.9 33.9L112.9 26.6L110.5 26.6L110.5 25.2L114.6 25.2L114.6 33.9L117.0 33.9L117.0 35.4L110.3 35.4ZM121.3 35.5Q120.3 35.5 119.8 35.3Q119.2 35.1 119.0 34.6Q118.8 34.1 118.8 33.3L118.8 33.3Q118.8 32.2 119.1 31.7Q119.4 31.1 120.2 30.8Q120.9 30.6 122.4 30.6L122.4 30.6L123.5 30.6L123.5 30.5Q123.5 29.8 123.1 29.6Q122.8 29.3 122.0 29.3L122.0 29.3Q121.2 29.3 120.9 29.5Q120.7 29.7 120.7 30.3L120.7 30.3L119.0 30.3Q118.9 29.4 119.2 28.8Q119.5 28.3 120.1 28.1Q120.8 27.9 122.0 27.9L122.0 27.9Q123.2 27.9 123.9 28.1Q124.5 28.4 124.8 28.9Q125.1 29.5 125.1 30.5L125.1 30.5L125.1 35.4L123.5 35.4L123.5 34.5L123.4 34.5Q123.0 35.1 122.6 35.3Q122.1 35.5 121.3 35.5L121.3 35.5ZM120.5 33.1Q120.5 33.7 120.7 33.9Q121.0 34.1 121.6 34.1L121.6 34.1Q122.3 34.1 122.7 33.9Q123.1 33.7 123.3 33.3Q123.4 32.8 123.4 32.0L123.4 32.0L122.1 32.0Q121.4 32.0 121.1 32.1Q120.7 32.2 120.6 32.5Q120.5 32.7 120.5 33.1L120.5 33.1ZM133.3 35.4L131.3 35.4L130.4 29.5L130.4 29.5L129.5 35.4L127.5 35.4L126.3 28.1L127.9 28.1L128.5 33.7L128.5 33.7L129.5 28.1L131.3 28.1L132.3 33.7L132.3 33.7L132.9 28.1L134.5 28.1L133.3 35.4Z "/><mask id="satori_om-id-1"><rect x="17" y="48" width="306" height="16" fill="#fff"/></mask><mask id="satori_om-id-1-0"><rect x="17" y="48" width="56" height="16" fill="#fff"/></mask><path x="17" y="48" width="56" height="16" fill="#3fb950" d="M25,48 h40 a8,8 0 0 1 8,8 v0 a8,8 0 0 1 -8,8 h-40 a8,8 0 0 1 -8,-8 v0 a8,8 0 0 1 8,-8"/><path fill="#000" d="M27.3 59.6L27.3 54.3L28.3 54.3L28.3 55.0L28.4 55.0Q28.6 54.5 28.8 54.4Q29.0 54.2 29.4 54.2L29.4 54.2Q29.9 54.2 30.1 54.4Q30.3 54.5 30.5 55.0L30.5 55.0L30.5 55.0Q30.6 54.5 30.8 54.4Q31.1 54.2 31.5 54.2L31.5 54.2Q32 54.2 32.3 54.4Q32.5 54.6 32.6 55.0Q32.7 55.4 32.7 56.2L32.7 56.2L32.7 59.6L31.6 59.6L31.6 56.4Q31.6 55.8 31.5 55.5Q31.4 55.3 31.1 55.3L31.1 55.3Q30.9 55.3 30.8 55.4Q30.6 55.5 30.6 55.8Q30.6 56.1 30.6 56.6L30.6 56.6L30.6 59.6L29.4 59.6L29.5 56.4Q29.5 55.8 29.4 55.5Q29.2 55.3 28.9 55.3L28.9 55.3Q28.7 55.3 28.6 55.4Q28.4 55.5 28.4 55.8Q28.4 56.1 28.4 56.6L28.4 56.6L28.4 59.6L27.3 59.6ZM36.1 59.7Q35.1 59.7 34.6 59.4Q34.0 59.2 33.8 58.6Q33.6 58.0 33.6 56.9L33.6 56.9Q33.6 55.8 33.8 55.3Q34.0 54.7 34.5 54.5Q35.1 54.2 36.0 54.2L36.0 54.2Q36.9 54.2 37.4 54.5Q37.9 54.7 38.2 55.3Q38.4 55.9 38.4 57.0L38.4 57.0L38.4 57.4L34.8 57.4Q34.9 57.9 35.0 58.1Q35.1 58.4 35.4 58.5Q35.6 58.6 36.1 58.6L36.1 58.6Q36.5 58.6 36.7 58.5Q36.9 58.3 37.1 58.0L37.1 58.0L38.3 58.0Q38.2 58.6 38.0 59.0Q37.7 59.3 37.3 59.5Q36.9 59.7 36.1 59.7L36.1 59.7ZM34.8 56.4L37.2 56.4Q37.2 55.8 36.9 55.5Q36.7 55.2 36.0 55.2L36.0 55.2Q35.4 55.2 35.1 55.5Q34.8 55.8 34.8 56.4L34.8 56.4ZM40.3 59.6L40.3 54.3L41.4 54.3L41.4 55.4L41.5 55.4Q41.9 54.8 42.0 54.6Q42.2 54.4 42.4 54.3Q42.5 54.3 43.0 54.3L43.0 54.3L44.0 54.3L44.0 55.5Q43.8 55.5 43.5 55.5L43.5 55.5Q42.9 55.5 42.5 55.6L42.5 55.6Q42.3 55.6 42.0 55.8Q41.8 56.0 41.7 56.4Q41.5 56.7 41.5 57.0L41.5 57.0L41.5 59.6L40.3 59.6ZM48.0 61.8Q47.1 61.8 46.6 61.6Q46.1 61.4 45.9 61.1Q45.7 60.7 45.7 60L45.7 60L46.9 60Q47.0 60.3 47.0 60.5Q47.1 60.6 47.4 60.7Q47.6 60.8 48.0 60.8L48.0 60.8Q48.5 60.8 48.7 60.7Q49.0 60.6 49.1 60.3Q49.2 60.1 49.2 59.6L49.2 59.6L49.2 58.9L49.1 58.9Q49.0 59.2 48.8 59.3Q48.6 59.5 48.4 59.5Q48.1 59.6 47.7 59.6L47.7 59.6Q46.8 59.6 46.4 59.4Q45.9 59.1 45.7 58.5Q45.5 58.0 45.5 57.0L45.5 57.0Q45.5 55.9 45.7 55.3Q45.9 54.7 46.4 54.5Q46.9 54.2 47.8 54.2L47.8 54.2Q48.4 54.2 48.7 54.4Q48.9 54.5 49.1 55.0L49.1 55.0L49.2 55.0L49.2 54.3L50.4 54.3L50.4 59.7Q50.4 60.5 50.2 61.0Q50.0 61.4 49.5 61.6Q49.0 61.8 48.0 61.8L48.0 61.8ZM46.7 57.0Q46.7 57.6 46.8 57.9Q47.0 58.3 47.2 58.4Q47.5 58.6 48.0 58.6L48.0 58.6Q48.4 58.6 48.7 58.4Q49.0 58.3 49.1 57.9Q49.2 57.6 49.2 57.0L49.2 57.0Q49.2 56.3 49.1 55.9Q49.0 55.6 48.7 55.4Q48.4 55.3 48.0 55.3L48.0 55.3Q47.5 55.3 47.2 55.4Q47.0 55.6 46.8 55.9Q46.7 56.3 46.7 57.0L46.7 57.0ZM54.1 59.7Q53.1 59.7 52.6 59.4Q52.0 59.2 51.8 58.6Q51.6 58.0 51.6 56.9L51.6 56.9Q51.6 55.8 51.8 55.3Q52.0 54.7 52.5 54.5Q53.1 54.2 54.0 54.2L54.0 54.2Q54.9 54.2 55.4 54.5Q55.9 54.7 56.2 55.3Q56.4 55.9 56.4 57.0L56.4 57.0L56.4 57.4L52.8 57.4Q52.9 57.9 53.0 58.1Q53.1 58.4 53.4 58.5Q53.6 58.6 54.1 58.6L54.1 58.6Q54.5 58.6 54.7 58.5Q54.9 58.3 55.1 58.0L55.1 58.0L56.3 58.0Q56.2 58.6 56.0 59.0Q55.7 59.3 55.3 59.5Q54.9 59.7 54.1 59.7L54.1 59.7ZM52.8 56.4L55.2 56.4Q55.2 55.8 54.9 55.5Q54.7 55.2 54.0 55.2L54.0 55.2Q53.4 55.2 53.1 55.5Q52.8 55.8 52.8 56.4L52.8 56.4ZM59.6 59.7Q58.8 59.7 58.3 59.4Q57.8 59.2 57.6 58.6Q57.4 58 57.4 56.9L57.4 56.9Q57.4 55.9 57.6 55.3Q57.8 54.7 58.3 54.5Q58.8 54.2 59.6 54.2L59.6 54.2Q60.3 54.2 60.6 54.3Q60.9 54.5 61.0 54.8L61.0 54.8L61.1 54.8L61.1 52.3L62.3 52.3L62.3 59.6L61.1 59.6L61.1 59.0L61.0 59.0Q60.8 59.4 60.5 59.5Q60.2 59.7 59.6 59.7L59.6 59.7ZM58.7 56.9Q58.7 57.6 58.8 57.9Q58.9 58.3 59.2 58.5Q59.4 58.6 60.0 58.6L60.0 58.6Q60.4 58.6 60.7 58.5Q60.9 58.3 61.0 57.9Q61.1 57.6 61.1 56.9L61.1 56.9Q61.1 56.3 61.0 55.9Q60.9 55.6 60.7 55.4Q60.4 55.3 60.0 55.3L60.0 55.3Q59.4 55.3 59.2 55.4Q58.9 55.6 58.8 55.9Q58.7 56.3 58.7 56.9L58.7 56.9Z "/><mask id="satori_om-id-1-1"><rect x="81" y="49" width="225" height="13" fill="#fff"/></mask><path fill="#8b949e" d="M83.5 59.6Q83.1 59.6 82.7 59.6Q82.3 59.6 81.9 59.5L81.9 59.5L81.9 52.0Q82.3 52.0 82.9 52.0L82.9 52.0Q83.5 52.0 84.0 52.0L84.0 52.0Q85.1 52.2 85.7 52.5Q86.3 52.9 86.6 53.7Q86.8 54.5 86.8 55.9L86.8 55.9Q86.8 57.4 86.5 58.2Q86.3 58.9 85.6 59.3Q84.8 59.6 83.5 59.6L83.5 59.6ZM82.9 58.7L83.2 58.8Q83.6 58.8 83.7 58.8L83.7 58.8Q83.8 58.8 84.1 58.8L84.1 58.8Q84.8 58.7 85.2 58.4Q85.6 58.2 85.7 57.5Q85.9 56.9 85.9 55.8L85.9 55.8Q85.9 54.7 85.7 54.1Q85.6 53.5 85.2 53.3Q84.8 53.0 84.0 52.9L84.0 52.9Q83.4 52.8 82.9 52.8L82.9 52.8L82.9 58.7ZM90.3 52.8L90.3 51.5L91.6 51.5L91.6 52.8L90.3 52.8ZM88.8 59.5L88.8 58.7L90.7 58.7L90.7 54.6L89.0 54.6L89.0 53.8L91.6 53.8L91.6 58.7L93.4 58.7L93.4 59.5L88.8 59.5ZM97.5 59.6Q96.6 59.6 96.1 59.5Q95.6 59.3 95.4 58.9Q95.2 58.6 95.2 57.9L95.2 57.9L96.1 57.9Q96.1 58.3 96.3 58.5Q96.4 58.6 96.7 58.7Q97.0 58.8 97.6 58.8L97.6 58.8Q98.1 58.8 98.4 58.7Q98.7 58.7 98.8 58.5Q98.9 58.3 98.9 58.0L98.9 58.0Q98.9 57.7 98.7 57.5Q98.6 57.3 98.2 57.2Q97.9 57.0 97.2 56.9L97.2 56.9Q96.4 56.7 96.0 56.5Q95.6 56.3 95.4 56.0Q95.2 55.7 95.2 55.2L95.2 55.2Q95.2 54.6 95.4 54.3Q95.6 53.9 96.1 53.8Q96.6 53.6 97.5 53.6L97.5 53.6Q98.3 53.6 98.8 53.8Q99.2 53.9 99.4 54.2Q99.6 54.5 99.7 55.1L99.7 55.1L98.8 55.1Q98.7 54.7 98.4 54.6Q98.2 54.4 97.5 54.4L97.5 54.4Q96.9 54.4 96.7 54.5Q96.4 54.6 96.3 54.8Q96.1 54.9 96.1 55.3L96.1 55.3Q96.1 55.4 96.3 55.6Q96.5 55.7 96.8 55.9Q97.2 56.0 97.9 56.2L97.9 56.2Q98.7 56.4 99.1 56.6Q99.5 56.8 99.6 57.1Q99.8 57.4 99.8 58.0L99.8 58.0Q99.8 58.6 99.6 59.0Q99.4 59.3 98.9 59.5Q98.4 59.6 97.5 59.6L97.5 59.6ZM104.3 59.6Q103.3 59.6 102.8 59.4Q102.2 59.1 102.0 58.5Q101.8 57.8 101.8 56.6L101.8 56.6Q101.8 55.5 102.0 54.8Q102.2 54.2 102.8 53.9Q103.3 53.6 104.3 53.6L104.3 53.6Q105.1 53.6 105.5 53.8Q106.0 54.0 106.2 54.4Q106.4 54.7 106.4 55.5L106.4 55.5L105.5 55.5Q105.4 54.9 105.2 54.7Q104.9 54.5 104.3 54.5L104.3 54.5Q103.7 54.5 103.3 54.7Q103.0 54.9 102.9 55.3Q102.7 55.8 102.7 56.7L102.7 56.7Q102.7 57.5 102.9 58.0Q103.0 58.4 103.3 58.6Q103.7 58.8 104.3 58.8L104.3 58.8Q104.9 58.8 105.2 58.6Q105.4 58.4 105.5 57.9L105.5 57.9L106.4 57.9Q106.4 58.6 106.2 59.0Q106.0 59.3 105.5 59.5Q105.1 59.6 104.3 59.6L104.3 59.6ZM110.7 59.6Q109.7 59.6 109.2 59.4Q108.7 59.1 108.5 58.4Q108.2 57.8 108.2 56.6L108.2 56.6Q108.2 55.4 108.5 54.8Q108.7 54.2 109.2 53.9Q109.7 53.6 110.7 53.6L110.7 53.6Q111.7 53.6 112.2 53.9Q112.7 54.2 112.9 54.8Q113.2 55.5 113.2 56.6L113.2 56.6Q113.2 57.8 112.9 58.4Q112.7 59.1 112.2 59.4Q111.7 59.6 110.7 59.6L110.7 59.6ZM109.2 56.6Q109.2 57.5 109.3 58.0Q109.4 58.4 109.8 58.6Q110.1 58.8 110.7 58.8L110.7 58.8Q111.3 58.8 111.6 58.6Q112.0 58.4 112.1 58.0Q112.2 57.5 112.2 56.6L112.2 56.6Q112.2 55.8 112.1 55.3Q112.0 54.8 111.6 54.6Q111.3 54.4 110.7 54.4L110.7 54.4Q110.1 54.4 109.8 54.6Q109.4 54.8 109.3 55.3Q109.2 55.8 109.2 56.6L109.2 56.6ZM115.8 59.5L115.8 53.8L116.7 53.8L116.7 55.1L116.8 55.1Q117.1 54.4 117.3 54.2Q117.4 53.9 117.7 53.8Q117.9 53.8 118.4 53.7L118.4 53.7L118.9 53.7Q119.1 53.7 119.5 53.8L119.5 53.8L119.5 54.6Q119.2 54.6 118.8 54.6L118.8 54.6Q118.4 54.6 118.1 54.6L118.1 54.6Q117.8 54.7 117.5 55.0Q117.2 55.3 116.9 55.7Q116.7 56.1 116.7 56.6L116.7 56.6L116.7 59.5L115.8 59.5ZM123.6 59.6Q122.7 59.6 122.2 59.4Q121.8 59.1 121.5 58.4Q121.3 57.8 121.3 56.6L121.3 56.6Q121.3 55.4 121.5 54.8Q121.7 54.2 122.2 53.9Q122.7 53.6 123.6 53.6L123.6 53.6Q124.3 53.6 124.6 53.8Q124.9 53.9 125.2 54.4L125.2 54.4L125.3 54.4L125.3 51.5L126.2 51.5L126.2 59.5L125.3 59.5L125.3 58.9L125.2 58.9Q124.9 59.3 124.5 59.5Q124.2 59.6 123.6 59.6L123.6 59.6ZM122.3 56.6Q122.3 57.5 122.4 57.9Q122.6 58.4 122.9 58.6Q123.2 58.8 123.8 58.8L123.8 58.8Q124.4 58.8 124.7 58.6Q125.0 58.4 125.1 57.9Q125.3 57.5 125.3 56.6L125.3 56.6Q125.3 55.8 125.1 55.3Q125.0 54.9 124.7 54.7Q124.4 54.5 123.8 54.5L123.8 54.5Q123.2 54.5 122.9 54.7Q122.6 54.9 122.4 55.3Q122.3 55.8 122.3 56.6L122.3 56.6Z M136.6 52.8L136.6 51.5L137.8 51.5L137.8 52.8L136.6 52.8ZM135.0 59.5L135.0 58.7L136.9 58.7L136.9 54.6L135.2 54.6L135.2 53.8L137.8 53.8L137.8 58.7L139.6 58.7L139.6 59.5L135.0 59.5ZM141.4 59.5L141.4 53.8L142.3 53.8L142.3 54.6L142.4 54.6Q142.6 54.0 143.0 53.8Q143.4 53.6 144.1 53.6L144.1 53.6Q144.9 53.6 145.3 53.8Q145.6 54.0 145.8 54.5Q146.0 55.0 146.0 55.8L146.0 55.8L146.0 59.5L145.1 59.5L145.1 55.8Q145.1 55.3 145.0 55.0Q144.8 54.7 144.6 54.6Q144.3 54.5 143.8 54.5L143.8 54.5Q143.2 54.5 142.9 54.7Q142.6 54.9 142.5 55.3Q142.3 55.7 142.3 56.5L142.3 56.5L142.3 59.5L141.4 59.5ZM151.0 59.6Q150.3 59.6 149.9 59.4Q149.6 59.3 149.5 58.9Q149.3 58.5 149.3 57.8L149.3 57.8L149.3 54.6L147.8 54.6L148.1 53.8L149.4 53.8L149.4 52.5L150.2 52.1L150.2 53.8L152.2 53.8L152.2 54.6L150.2 54.6L150.2 57.7Q150.2 58.1 150.3 58.4Q150.4 58.6 150.6 58.7Q150.9 58.8 151.3 58.8L151.3 58.8Q151.8 58.8 152.5 58.7L152.5 58.7L152.5 59.5Q151.5 59.6 151.0 59.6L151.0 59.6ZM157.0 59.6Q156.0 59.6 155.5 59.4Q154.9 59.1 154.7 58.5Q154.5 57.8 154.5 56.6L154.5 56.6Q154.5 55.4 154.7 54.8Q155.0 54.2 155.5 53.9Q156.0 53.6 156.9 53.6L156.9 53.6Q157.9 53.6 158.4 53.9Q158.9 54.2 159.1 54.9Q159.3 55.6 159.2 57.0L159.2 57.0L155.4 57.0Q155.5 57.7 155.6 58.1Q155.8 58.5 156.1 58.7Q156.4 58.8 157.0 58.8L157.0 58.8Q157.5 58.8 157.8 58.7Q158.0 58.5 158.2 58.0L158.2 58.0L159.1 58.0Q159.0 58.7 158.8 59.0Q158.5 59.4 158.1 59.5Q157.7 59.6 157.0 59.6L157.0 59.6ZM155.4 56.2L158.4 56.2Q158.3 55.5 158.2 55.1Q158.1 54.8 157.8 54.6Q157.4 54.5 156.9 54.5L156.9 54.5Q156.4 54.5 156.1 54.6Q155.8 54.8 155.6 55.1Q155.5 55.5 155.4 56.2L155.4 56.2ZM163.4 61.9Q162.6 61.9 162.1 61.7Q161.6 61.6 161.4 61.2Q161.2 60.9 161.1 60.2L161.1 60.2L162.1 60.2Q162.1 60.5 162.2 60.7Q162.3 60.9 162.6 61.0Q162.9 61.1 163.4 61.1L163.4 61.1Q164.0 61.1 164.3 61.0Q164.6 60.8 164.7 60.5Q164.8 60.2 164.9 59.5L164.9 59.5L164.9 58.7L164.8 58.7Q164.6 59.2 164.3 59.4Q164.0 59.5 163.3 59.5L163.3 59.5Q162.4 59.5 161.9 59.3Q161.4 59.0 161.1 58.4Q160.9 57.8 160.9 56.6L160.9 56.6Q160.9 55.4 161.1 54.8Q161.4 54.2 161.9 53.9Q162.4 53.6 163.3 53.6L163.3 53.6Q164.0 53.6 164.3 53.8Q164.6 54.0 164.8 54.5L164.8 54.5L164.9 54.5L164.9 53.8L165.8 53.8L165.8 59.7Q165.7 60.5 165.5 61.0Q165.3 61.5 164.8 61.7Q164.3 61.9 163.4 61.9L163.4 61.9ZM161.9 56.6Q161.9 57.5 162.0 57.9Q162.1 58.4 162.4 58.5Q162.8 58.7 163.4 58.7L163.4 58.7Q164.0 58.7 164.3 58.5Q164.6 58.4 164.7 57.9Q164.9 57.5 164.9 56.6L164.9 56.6Q164.9 55.8 164.7 55.3Q164.6 54.8 164.3 54.6Q164.0 54.4 163.4 54.4L163.4 54.4Q162.8 54.4 162.4 54.6Q162.1 54.8 162.0 55.3Q161.9 55.8 161.9 56.6L161.9 56.6ZM168.6 59.5L168.6 53.8L169.5 53.8L169.5 55.1L169.6 55.1Q169.9 54.4 170.1 54.2Q170.2 53.9 170.5 53.8Q170.7 53.8 171.2 53.7L171.2 53.7L171.7 53.7Q171.9 53.7 172.3 53.8L172.3 53.8L172.3 54.6Q172.0 54.6 171.6 54.6L171.6 54.6Q171.2 54.6 170.9 54.6L170.9 54.6Q170.6 54.7 170.3 55.0Q170.0 55.3 169.7 55.7Q169.5 56.1 169.5 56.6L169.5 56.6L169.5 59.5L168.6 59.5ZM176.1 59.6Q175.4 59.6 175.1 59.5Q174.7 59.3 174.5 59.0Q174.4 58.6 174.4 57.9L174.4 57.9Q174.4 57.1 174.6 56.7Q174.8 56.3 175.4 56.1Q175.9 55.9 176.9 55.9L176.9 55.9L177.9 55.9L177.9 55.6Q177.9 55.2 177.8 54.9Q177.7 54.7 177.4 54.5Q177.2 54.4 176.6 54.4L176.6 54.4Q176.0 54.4 175.7 54.6Q175.5 54.8 175.5 55.3L175.5 55.3L174.5 55.3Q174.5 54.6 174.7 54.3Q174.9 53.9 175.4 53.8Q175.8 53.6 176.6 53.6L176.6 53.6Q177.5 53.6 178.0 53.8Q178.4 54.0 178.6 54.4Q178.8 54.8 178.8 55.6L178.8 55.6L178.8 59.5L178.0 59.5L178.0 58.8L177.9 58.8Q177.6 59.3 177.2 59.4Q176.9 59.6 176.1 59.6L176.1 59.6ZM175.3 57.8Q175.3 58.4 175.5 58.6Q175.7 58.8 176.4 58.8L176.4 58.8Q177.0 58.8 177.3 58.6Q177.6 58.4 177.8 58.0Q177.9 57.5 177.9 56.7L177.9 56.7L176.7 56.7Q176.1 56.7 175.8 56.8Q175.5 56.9 175.4 57.1Q175.3 57.4 175.3 57.8L175.3 57.8ZM184.0 59.6Q183.3 59.6 182.9 59.4Q182.6 59.3 182.5 58.9Q182.3 58.5 182.3 57.8L182.3 57.8L182.3 54.6L180.8 54.6L181.1 53.8L182.4 53.8L182.4 52.5L183.2 52.1L183.2 53.8L185.2 53.8L185.2 54.6L183.2 54.6L183.2 57.7Q183.2 58.1 183.3 58.4Q183.4 58.6 183.6 58.7Q183.9 58.8 184.3 58.8L184.3 58.8Q184.8 58.8 185.5 58.7L185.5 58.7L185.5 59.5Q184.5 59.6 184.0 59.6L184.0 59.6ZM189.3 52.8L189.3 51.5L190.6 51.5L190.6 52.8L189.3 52.8ZM187.8 59.5L187.8 58.7L189.7 58.7L189.7 54.6L188.0 54.6L188.0 53.8L190.6 53.8L190.6 58.7L192.4 58.7L192.4 59.5L187.8 59.5ZM196.5 59.6Q195.5 59.6 195.0 59.4Q194.5 59.1 194.3 58.4Q194.0 57.8 194.0 56.6L194.0 56.6Q194.0 55.4 194.3 54.8Q194.5 54.2 195.0 53.9Q195.5 53.6 196.5 53.6L196.5 53.6Q197.5 53.6 198.0 53.9Q198.5 54.2 198.7 54.8Q199.0 55.5 199.0 56.6L199.0 56.6Q199.0 57.8 198.7 58.4Q198.5 59.1 198.0 59.4Q197.5 59.6 196.5 59.6L196.5 59.6ZM195.0 56.6Q195.0 57.5 195.1 58.0Q195.2 58.4 195.6 58.6Q195.9 58.8 196.5 58.8L196.5 58.8Q197.1 58.8 197.4 58.6Q197.8 58.4 197.9 58.0Q198.0 57.5 198.0 56.6L198.0 56.6Q198.0 55.8 197.9 55.3Q197.8 54.8 197.4 54.6Q197.1 54.4 196.5 54.4L196.5 54.4Q195.9 54.4 195.6 54.6Q195.2 54.8 195.1 55.3Q195.0 55.8 195.0 56.6L195.0 56.6ZM200.8 59.5L200.8 53.8L201.7 53.8L201.7 54.6L201.8 54.6Q202.0 54.0 202.4 53.8Q202.8 53.6 203.5 53.6L203.5 53.6Q204.3 53.6 204.7 53.8Q205.0 54.0 205.2 54.5Q205.4 55.0 205.4 55.8L205.4 55.8L205.4 59.5L204.5 59.5L204.5 55.8Q204.5 55.3 204.4 55.0Q204.2 54.7 204.0 54.6Q203.7 54.5 203.2 54.5L203.2 54.5Q202.6 54.5 202.3 54.7Q202.0 54.9 201.9 55.3Q201.7 55.7 201.7 56.5L201.7 56.5L201.7 59.5L200.8 59.5Z M215.9 59.0L215.9 56.6L213.6 56.6L213.6 55.8L215.9 55.8L215.9 53.5L216.7 53.5L216.7 55.8L219.0 55.8L219.0 56.6L216.7 56.6L216.7 59.0L215.9 59.0Z M229.5 59.6Q228.6 59.6 228.1 59.5Q227.6 59.3 227.4 58.9Q227.2 58.6 227.2 57.9L227.2 57.9L228.1 57.9Q228.1 58.3 228.3 58.5Q228.4 58.6 228.7 58.7Q229.0 58.8 229.6 58.8L229.6 58.8Q230.1 58.8 230.4 58.7Q230.7 58.7 230.8 58.5Q230.9 58.3 230.9 58.0L230.9 58.0Q230.9 57.7 230.7 57.5Q230.6 57.3 230.2 57.2Q229.9 57.0 229.2 56.9L229.2 56.9Q228.4 56.7 228.0 56.5Q227.6 56.3 227.4 56.0Q227.2 55.7 227.2 55.2L227.2 55.2Q227.2 54.6 227.4 54.3Q227.6 53.9 228.1 53.8Q228.6 53.6 229.5 53.6L229.5 53.6Q230.3 53.6 230.8 53.8Q231.2 53.9 231.4 54.2Q231.6 54.5 231.7 55.1L231.7 55.1L230.8 55.1Q230.7 54.7 230.4 54.6Q230.2 54.4 229.5 54.4L229.5 54.4Q228.9 54.4 228.7 54.5Q228.4 54.6 228.3 54.8Q228.1 54.9 228.1 55.3L228.1 55.3Q228.1 55.4 228.3 55.6Q228.5 55.7 228.8 55.9Q229.2 56.0 229.9 56.2L229.9 56.2Q230.7 56.4 231.1 56.6Q231.5 56.8 231.6 57.1Q231.8 57.4 231.8 58.0L231.8 58.0Q231.8 58.6 231.6 59.0Q231.4 59.3 230.9 59.5Q230.4 59.6 229.5 59.6L229.5 59.6ZM236.2 59.6Q235.2 59.6 234.7 59.4Q234.1 59.1 233.9 58.5Q233.7 57.8 233.7 56.6L233.7 56.6Q233.7 55.4 233.9 54.8Q234.2 54.2 234.7 53.9Q235.2 53.6 236.1 53.6L236.1 53.6Q237.1 53.6 237.6 53.9Q238.1 54.2 238.3 54.9Q238.5 55.6 238.4 57.0L238.4 57.0L234.6 57.0Q234.7 57.7 234.8 58.1Q235.0 58.5 235.3 58.7Q235.6 58.8 236.2 58.8L236.2 58.8Q236.7 58.8 237.0 58.7Q237.2 58.5 237.4 58.0L237.4 58.0L238.3 58.0Q238.2 58.7 238.0 59.0Q237.7 59.4 237.3 59.5Q236.9 59.6 236.2 59.6L236.2 59.6ZM234.6 56.2L237.6 56.2Q237.5 55.5 237.4 55.1Q237.3 54.8 237.0 54.6Q236.6 54.5 236.1 54.5L236.1 54.5Q235.6 54.5 235.3 54.6Q235.0 54.8 234.8 55.1Q234.7 55.5 234.6 56.2L234.6 56.2ZM243.4 59.6Q242.7 59.6 242.3 59.4Q242.0 59.3 241.9 58.9Q241.7 58.5 241.7 57.8L241.7 57.8L241.7 54.6L240.2 54.6L240.5 53.8L241.8 53.8L241.8 52.5L242.6 52.1L242.6 53.8L244.6 53.8L244.6 54.6L242.6 54.6L242.6 57.7Q242.6 58.1 242.7 58.4Q242.8 58.6 243.0 58.7Q243.3 58.8 243.7 58.8L243.7 58.8Q244.2 58.8 244.9 58.7L244.9 58.7L244.9 59.5Q243.9 59.6 243.4 59.6L243.4 59.6ZM248.8 59.6Q248.1 59.6 247.7 59.4Q247.3 59.2 247.1 58.8Q247.0 58.3 247.0 57.4L247.0 57.4L247.0 53.8L247.9 53.8L247.9 57.5Q247.9 58.0 248.0 58.3Q248.1 58.6 248.4 58.7Q248.6 58.8 249.0 58.8L249.0 58.8Q249.7 58.8 250.0 58.6Q250.4 58.4 250.5 58.0Q250.7 57.5 250.7 56.7L250.7 56.7L250.7 53.8L251.6 53.8L251.6 59.5L250.7 59.5L250.7 58.7L250.6 58.7Q250.3 59.2 249.9 59.4Q249.6 59.6 248.8 59.6L248.8 59.6ZM253.6 61.9L253.6 53.8L254.5 53.8L254.5 54.4L254.6 54.4Q254.9 53.9 255.2 53.8Q255.6 53.6 256.1 53.6L256.1 53.6Q257.0 53.6 257.5 53.9Q258.0 54.2 258.2 54.8Q258.4 55.4 258.4 56.6L258.4 56.6Q258.4 57.8 258.2 58.4Q258.0 59.1 257.5 59.4Q257.1 59.6 256.2 59.6L256.2 59.6Q255.5 59.6 255.2 59.5Q254.9 59.3 254.6 58.9L254.6 58.9L254.5 58.9L254.5 61.9L253.6 61.9ZM254.5 56.6Q254.5 57.5 254.6 58.0Q254.8 58.4 255.1 58.6Q255.4 58.8 255.9 58.8L255.9 58.8Q256.5 58.8 256.9 58.6Q257.2 58.4 257.4 57.9Q257.5 57.5 257.5 56.6L257.5 56.6Q257.5 55.8 257.4 55.3Q257.2 54.9 256.9 54.7Q256.5 54.5 255.9 54.5L255.9 54.5Q255.4 54.5 255.1 54.6Q254.8 54.8 254.6 55.3Q254.5 55.8 254.5 56.6L254.5 56.6Z M271.1 59.5L270.1 59.5L269.1 54.8L269.1 54.8L268.1 59.5L267.1 59.5L265.9 53.8L266.9 53.8L267.6 58.4L267.7 58.4L268.6 53.8L269.6 53.8L270.5 58.4L270.6 58.4L271.3 53.8L272.3 53.8L271.1 59.5ZM275.1 52.8L275.1 51.5L276.4 51.5L276.4 52.8L275.1 52.8ZM273.6 59.5L273.6 58.7L275.5 58.7L275.5 54.6L273.8 54.6L273.8 53.8L276.4 53.8L276.4 58.7L278.2 58.7L278.2 59.5L273.6 59.5ZM280.1 59.5L280.1 58.7L283.4 54.6L280.3 54.6L280.3 53.8L284.5 53.8L284.5 54.5L281.1 58.7L284.5 58.7L284.5 59.5L280.1 59.5ZM288.3 59.6Q287.6 59.6 287.3 59.5Q286.9 59.3 286.7 59.0Q286.6 58.6 286.6 57.9L286.6 57.9Q286.6 57.1 286.8 56.7Q287.0 56.3 287.6 56.1Q288.1 55.9 289.1 55.9L289.1 55.9L290.1 55.9L290.1 55.6Q290.1 55.2 290.0 54.9Q289.9 54.7 289.6 54.5Q289.4 54.4 288.8 54.4L288.8 54.4Q288.2 54.4 287.9 54.6Q287.7 54.8 287.7 55.3L287.7 55.3L286.7 55.3Q286.7 54.6 286.9 54.3Q287.1 53.9 287.6 53.8Q288.0 53.6 288.8 53.6L288.8 53.6Q289.7 53.6 290.2 53.8Q290.6 54.0 290.8 54.4Q291.0 54.8 291.0 55.6L291.0 55.6L291.0 59.5L290.2 59.5L290.2 58.8L290.1 58.8Q289.8 59.3 289.4 59.4Q289.1 59.6 288.3 59.6L288.3 59.6ZM287.5 57.8Q287.5 58.4 287.7 58.6Q287.9 58.8 288.6 58.8L288.6 58.8Q289.2 58.8 289.5 58.6Q289.8 58.4 290.0 58.0Q290.1 57.5 290.1 56.7L290.1 56.7L288.9 56.7Q288.3 56.7 288.0 56.8Q287.7 56.9 287.6 57.1Q287.5 57.4 287.5 57.8L287.5 57.8ZM294.0 59.5L294.0 53.8L294.9 53.8L294.9 55.1L295.0 55.1Q295.3 54.4 295.5 54.2Q295.6 53.9 295.9 53.8Q296.1 53.8 296.6 53.7L296.6 53.7L297.1 53.7Q297.3 53.7 297.7 53.8L297.7 53.8L297.7 54.6Q297.4 54.6 297.0 54.6L297.0 54.6Q296.6 54.6 296.3 54.6L296.3 54.6Q296.0 54.7 295.7 55.0Q295.4 55.3 295.1 55.7Q294.9 56.1 294.9 56.6L294.9 56.6L294.9 59.5L294.0 59.5ZM301.8 59.6Q300.9 59.6 300.4 59.4Q300.0 59.1 299.7 58.4Q299.5 57.8 299.5 56.6L299.5 56.6Q299.5 55.4 299.7 54.8Q299.9 54.2 300.4 53.9Q300.9 53.6 301.8 53.6L301.8 53.6Q302.5 53.6 302.8 53.8Q303.1 53.9 303.4 54.4L303.4 54.4L303.5 54.4L303.5 51.5L304.4 51.5L304.4 59.5L303.5 59.5L303.5 58.9L303.4 58.9Q303.1 59.3 302.7 59.5Q302.4 59.6 301.8 59.6L301.8 59.6ZM300.5 56.6Q300.5 57.5 300.6 57.9Q300.8 58.4 301.1 58.6Q301.4 58.8 302.0 58.8L302.0 58.8Q302.6 58.8 302.9 58.6Q303.2 58.4 303.3 57.9Q303.5 57.5 303.5 56.6L303.5 56.6Q303.5 55.8 303.3 55.3Q303.2 54.9 302.9 54.7Q302.6 54.5 302.0 54.5L302.0 54.5Q301.4 54.5 301.1 54.7Q300.8 54.9 300.6 55.3Q300.5 55.8 300.5 56.6L300.5 56.6Z "/></svg>