<svg width="340" height="86" viewBox="0 0 340 86" xmlns="http://www.w3.org/2000/svg"><defs><clipPath id="satori_bc-id"><path x="0" y="0" width="340" height="86" d="M10,0 h320 a10,10 0 0 1 10,10 v66 a10,10 0 0 1 -10,10 h-320 a10,10 0 0 1 -10,-10 v-66 a10,10 0 0 1 10,-10"/></clipPath></defs><mask id="satori_om-id"><rect x="1" y="1" width="338" height="84" fill="#fff"/><path width="340" height="86" fill="none" stroke="#000" stroke-width="2" d="M2.9290000000000003,2.9290000000000003 A10,10 0 0 1 10,0 h320 a10,10 0 0 1 10,10 v66 a10,10 0 0 1 -10,10 h-320 a10,10 0 0 1 -10,-10 v-66 A10,10 0 0 1 2.9290000000000003,2.9290000000000003"/></mask><path x="0" y="0" width="340" height="86" fill="#0d1117" d="M10,0 h320 a10,10 0 0 1 10,10 v66 a10,10 0 0 1 -10,10 h-320 a10,10 0 0 1 -10,-10 v-66 a10,10 0 0 1 10,-10"/><path width="340" height="86" clip-path="url(#satori_bc-id)" fill="none" stroke="#30363d" stroke-width="2" d="M2.9290000000000003,2.9290000000000003 A10,10 0 0 1 10,0 h320 a10,10 0 0 1 10,10 v66 a10,10 0 0 1 -10,10 h-320 a10,10 0 0 1 -10,-10 v-66 A10,10 0 0 1 2.9290000000000003,2.9290000000000003"/><mask id="satori_om-id-0"><rect x="17" y="17" width="306" height="16" fill="#fff"/></mask><path fill="#e6edf3" d="M17.6 30.4L17.6 20.9L19.8 20.9L23.2 28.3L23.3 28.3L23.1 26.3L23.1 20.9L24.8 20.9L24.8 30.4L22.6 30.4L19.2 22.9L19.1 22.9L19.3 24.9L19.3 30.4L17.6 30.4ZM29.7 30.5Q28.4 30.5 27.6 30.2Q26.9 29.8 26.6 29.0Q26.2 28.2 26.2 26.7L26.2 26.7Q26.2 25.2 26.5 24.4Q26.8 23.6 27.6 23.2Q28.3 22.9 29.6 22.9L29.6 22.9Q30.9 22.9 31.6 23.3Q32.3 23.6 32.6 24.4Q32.9 25.3 32.9 26.8L32.9 26.8L32.9 27.3L28.0 27.3Q28.0 28.0 28.2 28.4Q28.4 28.8 28.7 28.9Q29.1 29.1 29.7 29.1L29.7 29.1Q30.3 29.1 30.6 28.9Q30.9 28.7 31.1 28.1L31.1 28.1L32.8 28.1Q32.7 29.1 32.4 29.6Q32.0 30.1 31.4 30.3Q30.8 30.5 29.7 30.5L29.7 30.5ZM28.0 26.0L31.3 26.0Q31.3 25.1 30.9 24.7Q30.5 24.3 29.6 24.3L29.6 24.3Q28.7 24.3 28.4 24.7Q28.0 25.1 28.0 26.0L28.0 26.0ZM40.9 30.4L38.9 30.4L38.0 24.5L38.0 24.5L37.1 30.4L35.1 30.4L33.9 23.1L35.5 23.1L36.1 28.7L36.1 28.7L37.1 23.1L38.9 23.1L39.9 28.7L39.9 28.7L40.5 23.1L42.1 23.1L40.9 30.4ZM45.5 30.4L45.5 22.5L43.0 22.5L43.0 20.9L49.8 20.9L49.8 22.5L47.3 22.5L47.3 30.4L45.5 30.4ZM54.0 30.5Q53.0 30.5 52.5 30.3Q52.0 30.0 51.7 29.4Q51.5 28.8 51.5 27.7L51.5 27.7L51.5 23.1L53.2 23.1L53.2 27.7Q53.2 28.5 53.5 28.8Q53.7 29.1 54.5 29.1L54.5 29.1Q55.2 29.1 55.6 28.9Q56.0 28.7 56.2 28.2Q56.3 27.7 56.3 26.9L56.3 26.9L56.3 23.1L58.0 23.1L58.0 30.4L56.3 30.4L56.3 29.4L56.2 29.4Q55.9 30.0 55.4 30.3Q54.9 30.5 54.0 30.5L54.0 30.5ZM60.8 30.4L60.8 23.1L62.4 23.1L62.3 24.6L62.5 24.6Q63.0 23.7 63.2 23.4Q63.4 23.1 63.7 23.1Q63.9 23.0 64.6 23.0L64.6 23.0L66.0 23.0L66.0 24.7Q65.7 24.7 65.2 24.7L65.2 24.7Q64.5 24.7 63.9 24.8L63.9 24.8Q63.6 24.8 63.3 25.1Q62.9 25.5 62.7 25.9Q62.5 26.4 62.5 26.8L62.5 26.8L62.5 30.4L60.8 30.4ZM68.4 30.4L68.4 23.1L70.1 23.1L70.1 24.1L70.2 24.1Q70.6 23.4 71.0 23.1Q71.4 22.9 72.2 22.9L72.2 22.9Q73.2 22.9 73.8 23.2Q74.4 23.4 74.6 24.0Q74.9 24.6 74.9 25.8L74.9 25.8L74.9 30.4L73.2 30.4L73.2 25.7Q73.2 25.0 72.9 24.7Q72.6 24.4 71.8 24.4L71.8 24.4Q71.1 24.4 70.8 24.6Q70.4 24.8 70.2 25.3Q70.1 25.7 70.1 26.6L70.1 26.6L70.1 30.4L68.4 30.4ZM76.7 28.1Q78.6 26.6 79.5 25.9Q80.4 25.2 81.0 24.6L81.0 24.6Q81.2 24.4 81.3 24.1Q81.4 23.9 81.4 23.5L81.4 23.5Q81.4 23.0 81.3 22.7Q81.1 22.5 80.8 22.3Q80.5 22.2 79.9 22.2L79.9 22.2Q79.3 22.2 79.0 22.4Q78.7 22.5 78.5 22.7Q78.4 23.0 78.3 23.5L78.3 23.5L76.5 23.5Q76.6 22.4 76.9 21.8Q77.2 21.2 77.9 21.0Q78.6 20.7 79.9 20.7L79.9 20.7Q81.2 20.7 81.9 21.0Q82.6 21.2 82.9 21.8Q83.2 22.4 83.2 23.5L83.2 23.5Q83.2 24.2 83.0 24.7Q82.7 25.2 82.2 25.8L82.2 25.8Q81.4 26.5 80.7 27.1Q79.9 27.8 78.5 28.7L78.5 28.7L78.5 28.8L83.3 28.8L83.3 30.4L76.7 30.4L76.7 28.1ZM88.4 30.5Q87.3 30.5 86.7 30.3Q86.1 30.2 85.7 29.7Q85.4 29.3 85.2 28.3L85.2 28.3Q84.9 27.1 84.9 25.6L84.9 25.6Q84.9 24.0 85.2 22.9L85.2 22.9Q85.4 22.0 85.8 21.5Q86.1 21.1 86.7 20.9Q87.3 20.7 88.4 20.7L88.4 20.7Q89.5 20.7 90.1 20.9Q90.7 21.1 91.0 21.5Q91.4 22.0 91.6 22.9L91.6 22.9Q91.9 24 91.9 25.7L91.9 25.7Q91.9 26.5 91.8 27.1Q91.8 27.7 91.6 28.3L91.6 28.3Q91.4 29.3 91.0 29.7Q90.7 30.2 90.1 30.3Q89.5 30.5 88.4 30.5L88.4 30.5ZM86.7 25.6Q86.7 26.9 86.8 27.9L86.8 27.9Q86.9 28.4 87.1 28.6Q87.2 28.8 87.5 28.9Q87.8 29.0 88.4 29.0L88.4 29.0Q89.0 29.0 89.3 28.9Q89.6 28.8 89.7 28.6Q89.8 28.4 89.9 27.8L89.9 27.8Q90.1 27.0 90.1 25.6L90.1 25.6Q90.1 24.8 90.1 24.4Q90.1 24.0 89.9 23.4L89.9 23.4Q89.9 22.9 89.7 22.6Q89.6 22.4 89.3 22.3Q89.0 22.2 88.4 22.2L88.4 22.2Q87.8 22.2 87.5 22.3Q87.2 22.4 87.1 22.6Q87.0 22.8 86.8 23.4L86.8 23.4Q86.8 23.8 86.7 24.3Q86.7 24.8 86.7 25.6L86.7 25.6ZM96.8 30.4L96.8 23.7L96.9 22.8L96.3 23.3L93.8 24.8L93.8 23.0L96.8 20.9L98.6 20.9L98.6 30.4L96.8 30.4ZM102.2 30.5L106.3 22.5L101.7 22.5L101.7 20.9L108.2 20.9L108.2 22.5L104.1 30.5L102.2 30.5ZM110.2 32.2L115.3 19.4L116.9 19.4L111.9 32.2L110.2 32.2ZM122.3 30.5Q120.9 30.5 120.1 30.2Q119.4 29.8 119.0 29.0Q118.7 28.2 118.7 26.7L118.7 26.7Q118.7 25.2 119.0 24.4Q119.4 23.6 120.1 23.2Q120.9 22.9 122.2 22.9L122.2 22.9Q123.4 22.9 124.1 23.1Q124.7 23.4 125.0 23.9Q125.3 24.5 125.3 25.5L125.3 25.5L123.7 25.5Q123.6 24.9 123.3 24.6Q123.0 24.4 122.3 24.4L122.3 24.4Q121.6 24.4 121.2 24.6Q120.8 24.8 120.6 25.3Q120.4 25.8 120.4 26.8L120.4 26.8Q120.4 27.7 120.6 28.1Q120.8 28.6 121.2 28.8Q121.6 29.0 122.3 29.0L122.3 29.0Q123.0 29.0 123.3 28.8Q123.5 28.6 123.7 28.0L123.7 28.0L125.3 28.0Q125.3 29.0 125.0 29.5Q124.7 30.1 124.1 30.3Q123.4 30.5 122.3 30.5L122.3 30.5ZM130.7 30.5Q129.3 30.5 128.5 30.2Q127.8 29.8 127.4 29.0Q127.1 28.2 127.1 26.7L127.1 26.7Q127.1 25.2 127.4 24.4Q127.8 23.6 128.5 23.2Q129.3 22.9 130.6 22.9L130.6 22.9Q131.8 22.9 132.5 23.1Q133.1 23.4 133.4 23.9Q133.7 24.5 133.7 25.5L133.7 25.5L132.1 25.5Q132.0 24.9 131.7 24.6Q131.4 24.4 130.7 24.4L130.7 24.4Q130.0 24.4 129.6 24.6Q129.2 24.8 129.0 25.3Q128.8 25.8 128.8 26.8L128.8 26.8Q128.8 27.7 129.0 28.1Q129.2 28.6 129.6 28.8Q130.0 29.0 130.7 29.0L130.7 29.0Q131.4 29.0 131.7 28.8Q131.9 28.6 132.1 28.0L132.1 28.0L133.7 28.0Q133.7 29.0 133.4 29.5Q133.1 30.1 132.5 30.3Q131.8 30.5 130.7 30.5L130.7 30.5ZM138.0 30.5Q137.0 30.5 136.5 30.3Q136.0 30.0 135.7 29.4Q135.5 28.8 135.5 27.7L135.5 27.7L135.5 23.1L137.2 23.1L137.2 27.7Q137.2 28.5 137.5 28.8Q137.8 29.1 138.5 29.1L138.5 29.1Q139.2 29.1 139.6 28.9Q140.0 28.7 140.2 28.2Q140.3 27.7 140.3 26.9L140.3 26.9L140.3 23.1L142.0 23.1L142.0 30.4L140.3 30.4L140.3 29.4L140.2 29.4Q139.9 30.0 139.4 30.3Q138.9 30.5 138.0 30.5L138.0 30.5ZM147.2 30.5Q145.9 30.5 145.2 30.3Q144.4 30.1 144.1 29.5Q143.9 29.0 143.9 28.0L143.9 28.0L145.6 28.0Q145.6 28.4 145.8 28.6Q145.9 28.9 146.3 29.0Q146.7 29.1 147.4 29.1L147.4 29.1Q148.2 29.1 148.5 28.9Q148.8 28.7 148.8 28.3L148.8 28.3Q148.8 28.0 148.6 27.8Q148.4 27.7 148.0 27.5Q147.6 27.4 146.8 27.2L146.8 27.2Q145.7 27.0 145.1 26.8Q144.5 26.5 144.2 26.1Q144.0 25.7 144.0 25.1L144.0 25.1Q144.0 24.2 144.3 23.7Q144.6 23.3 145.2 23.1Q145.9 22.9 147.2 22.9L147.2 22.9Q148.4 22.9 149.1 23.1Q149.8 23.3 150.1 23.8Q150.3 24.3 150.4 25.2L150.4 25.2L148.7 25.2Q148.6 24.7 148.3 24.5Q148.0 24.3 147.2 24.3L147.2 24.3Q146.3 24.3 146.0 24.5Q145.7 24.6 145.7 25.1L145.7 25.1Q145.7 25.3 146.1 25.5Q146.6 25.6 147.8 25.9L147.8 25.9Q148.9 26.2 149.5 26.5Q150.0 26.7 150.3 27.2Q150.5 27.6 150.5 28.3L150.5 28.3Q150.5 29.2 150.2 29.6Q149.9 30.1 149.2 30.3Q148.5 30.5 147.2 30.5L147.2 30.5ZM154.9 30.5Q153.9 30.5 153.4 30.3Q152.8 30.1 152.6 29.6Q152.4 29.1 152.4 28.3L152.4 28.3Q152.4 27.2 152.7 26.7Q153.0 26.1 153.8 25.8Q154.5 25.6 156.0 25.6L156.0 25.6L157.1 25.6L157.1 25.5Q157.1 24.8 156.7 24.6Q156.4 24.3 155.6 24.3L155.6 24.3Q154.8 24.3 154.5 24.5Q154.3 24.7 154.3 25.3L154.3 25.3L152.6 25.3Q152.5 24.4 152.8 23.8Q153.1 23.3 153.7 23.1Q154.4 22.9 155.6 22.9L155.6 22.9Q156.8 22.9 157.5 23.1Q158.1 23.4 158.4 23.9Q158.7 24.5 158.7 25.5L158.7 25.5L158.7 30.4L157.1 30.4L157.1 29.5L157.0 29.5Q156.6 30.1 156.2 30.3Q155.7 30.5 154.9 30.5L154.9 30.5ZM154.1 28.1Q154.1 28.7 154.3 28.9Q154.6 29.1 155.2 29.1L155.2 29.1Q155.9 29.1 156.3 28.9Q156.7 28.7 156.9 28.3Q157.0 27.8 157.0 27.0L157.0 27.0L155.7 27.0Q155.0 27.0 154.7 27.1Q154.3 27.2 154.2 27.5Q154.1 27.7 154.1 28.1L154.1 28.1ZM164.0 33.5Q162.8 33.5 162.1 33.2Q161.4 33.0 161.1 32.5Q160.8 32.0 160.8 31L160.8 31L162.5 31Q162.5 31.4 162.7 31.7Q162.8 31.9 163.1 32.0Q163.4 32.1 164.0 32.1L164.0 32.1Q164.7 32.1 165.0 31.9Q165.4 31.8 165.5 31.4Q165.6 31.1 165.7 30.5L165.7 30.5L165.7 29.4L165.6 29.4Q165.4 29.8 165.1 30.0Q164.9 30.2 164.5 30.3Q164.2 30.4 163.5 30.4L163.5 30.4Q162.4 30.4 161.7 30.1Q161.1 29.8 160.8 29.0Q160.5 28.2 160.5 26.7L160.5 26.7Q160.5 25.2 160.8 24.4Q161.1 23.6 161.8 23.3Q162.5 22.9 163.7 22.9L163.7 22.9Q164.5 22.9 164.9 23.1Q165.3 23.4 165.6 23.9L165.6 23.9L165.7 23.9L165.7 23.1L167.3 23.1L167.3 30.6Q167.3 31.7 167.0 32.3Q166.7 32.9 166.0 33.2Q165.3 33.5 164.0 33.5L164.0 33.5ZM162.2 26.7Q162.2 27.6 162.4 28.1Q162.5 28.6 162.9 28.8Q163.3 29.0 163.9 29.0L163.9 29.0Q164.6 29.0 165.0 28.8Q165.3 28.6 165.5 28.1Q165.7 27.6 165.7 26.7L165.7 26.7Q165.7 25.8 165.5 25.3Q165.3 24.8 165.0 24.6Q164.6 24.4 163.9 24.4L163.9 24.4Q163.3 24.4 162.9 24.6Q162.5 24.8 162.4 25.3Q162.2 25.8 162.2 26.7L162.2 26.7ZM172.5 30.5Q171.2 30.5 170.4 30.2Q169.7 29.8 169.4 29.0Q169.0 28.2 169.0 26.7L169.0 26.7Q169.0 25.2 169.3 24.4Q169.6 23.6 170.4 23.2Q171.1 22.9 172.4 22.9L172.4 22.9Q173.7 22.9 174.4 23.3Q175.1 23.6 175.4 24.4Q175.7 25.3 175.7 26.8L175.7 26.8L175.7 27.3L170.8 27.3Q170.8 28.0 171.0 28.4Q171.2 28.8 171.5 28.9Q171.9 29.1 172.5 29.1L172.5 29.1Q173.1 29.1 173.4 28.9Q173.7 28.7 173.9 28.1L173.9 28.1L175.6 28.1Q175.5 29.1 175.2 29.6Q174.8 30.1 174.2 30.3Q173.6 30.5 172.5 30.5L172.5 30.5ZM170.8 26.0L174.1 26.0Q174.1 25.1 173.7 24.7Q173.3 24.3 172.4 24.3L172.4 24.3Q171.5 24.3 171.2 24.7Q170.8 25.1 170.8 26.0L170.8 26.0Z "/><mask id="satori_om-id-1"><rect x="17" y="43" width="306" height="26" fill="#fff"/></mask><mask id="satori_om-id-1-0"><rect x="17" y="48" width="41" height="16" fill="#fff"/></mask><path x="17" y="48" width="41" height="16" fill="#1f6feb" d="M25,48 h25 a8,8 0 0 1 8,8 v0 a8,8 0 0 1 -8,8 h-25 a8,8 0 0 1 -8,-8 v0 a8,8 0 0 1 8,-8"/><path fill="#000" d="M30 59.7Q29.0 59.7 28.5 59.4Q28.0 59.2 27.7 58.6Q27.5 58.0 27.5 56.9L27.5 56.9Q27.5 55.9 27.7 55.3Q28.0 54.7 28.5 54.5Q29.0 54.2 30 54.2L30 54.2Q31.0 54.2 31.5 54.5Q32.0 54.7 32.3 55.3Q32.5 55.9 32.5 56.9L32.5 56.9Q32.5 58.0 32.3 58.6Q32.0 59.2 31.5 59.4Q31.0 59.7 30 59.7L30 59.7ZM28.7 56.9Q28.7 57.6 28.9 58.0Q29.0 58.3 29.2 58.5Q29.5 58.6 30 58.6L30 58.6Q30.5 58.6 30.8 58.5Q31.0 58.3 31.1 58.0Q31.3 57.6 31.3 56.9L31.3 56.9Q31.3 56.3 31.1 55.9Q31.0 55.6 30.8 55.4Q30.5 55.2 30 55.2L30 55.2Q29.5 55.2 29.2 55.4Q29.0 55.6 28.9 55.9Q28.7 56.3 28.7 56.9L28.7 56.9ZM33.5 61.7L33.5 54.3L34.7 54.3L34.7 54.9L34.8 54.9Q35.1 54.5 35.4 54.4Q35.7 54.2 36.1 54.2L36.1 54.2Q37.0 54.2 37.5 54.5Q38.0 54.7 38.2 55.3Q38.4 55.9 38.4 57.0L38.4 57.0Q38.4 58.0 38.2 58.6Q38.0 59.2 37.5 59.4Q37.0 59.7 36.1 59.7L36.1 59.7Q35.6 59.7 35.3 59.5Q35.0 59.4 34.8 59.0L34.8 59.0L34.7 59.0L34.7 61.7L33.5 61.7ZM34.7 57.0Q34.7 57.6 34.8 58.0Q34.9 58.3 35.1 58.5Q35.4 58.6 35.9 58.6L35.9 58.6Q36.4 58.6 36.6 58.5Q36.9 58.3 37.0 58.0Q37.1 57.6 37.1 57.0L37.1 57.0Q37.1 56.3 37.0 55.9Q36.9 55.6 36.6 55.4Q36.4 55.3 35.9 55.3L35.9 55.3Q35.4 55.3 35.1 55.4Q34.9 55.6 34.8 55.9Q34.7 56.3 34.7 57.0L34.7 57.0ZM42.1 59.7Q41.1 59.7 40.6 59.4Q40.0 59.2 39.8 58.6Q39.6 58.0 39.6 56.9L39.6 56.9Q39.6 55.8 39.8 55.3Q40.0 54.7 40.5 54.5Q41.1 54.2 42.0 54.2L42.0 54.2Q42.9 54.2 43.4 54.5Q43.9 54.7 44.2 55.3Q44.4 55.9 44.4 57.0L44.4 57.0L44.4 57.4L40.8 57.4Q40.9 57.9 41.0 58.1Q41.1 58.4 41.4 58.5Q41.6 58.6 42.1 58.6L42.1 58.6Q42.5 58.6 42.7 58.5Q42.9 58.3 43.1 58.0L43.1 58.0L44.3 58.0Q44.2 58.6 44.0 59.0Q43.7 59.3 43.3 59.5Q42.9 59.7 42.1 59.7L42.1 59.7ZM40.8 56.4L43.2 56.4Q43.2 55.8 42.9 55.5Q42.7 55.2 42.0 55.2L42.0 55.2Q41.4 55.2 41.1 55.5Q40.8 55.8 40.8 56.4L40.8 56.4ZM45.7 59.6L45.7 54.3L46.9 54.3L46.9 55.1L47.0 55.1Q47.3 54.6 47.6 54.4Q47.9 54.2 48.4 54.2L48.4 54.2Q49.2 54.2 49.6 54.4Q50.0 54.6 50.2 55.0Q50.3 55.5 50.3 56.3L50.3 56.3L50.3 59.6L49.1 59.6L49.1 56.2Q49.1 55.7 48.9 55.5Q48.7 55.3 48.1 55.3L48.1 55.3Q47.7 55.3 47.4 55.4Q47.1 55.6 47.0 55.9Q46.9 56.2 46.9 56.9L46.9 56.9L46.9 59.6L45.7 59.6Z "/><mask id="satori_om-id-1-1"><rect x="66" y="43" width="257" height="26" fill="#fff"/></mask><path fill="#8b949e" d="M67.3 53.5L67.3 46.0L71.4 46.0L71.4 46.9L68.2 46.9L68.2 49.2L71.0 49.2L71.0 50.1L68.2 50.1L68.2 52.7L71.6 52.7L71.6 53.5L67.3 53.5ZM73.6 53.5L73.6 47.8L74.5 47.8L74.5 48.6L74.6 48.6Q74.8 48.0 75.2 47.8Q75.6 47.6 76.3 47.6L76.3 47.6Q77.1 47.6 77.5 47.8Q77.8 48.0 78.0 48.5Q78.2 49.0 78.2 49.8L78.2 49.8L78.2 53.5L77.3 53.5L77.3 49.8Q77.3 49.3 77.2 49.0Q77.0 48.7 76.8 48.6Q76.5 48.5 76.0 48.5L76.0 48.5Q75.4 48.5 75.1 48.7Q74.8 48.9 74.7 49.3Q74.5 49.7 74.5 50.5L74.5 50.5L74.5 53.5L73.6 53.5ZM82.4 55.9Q81.6 55.9 81.1 55.7Q80.6 55.6 80.4 55.2Q80.2 54.9 80.1 54.2L80.1 54.2L81.1 54.2Q81.1 54.5 81.2 54.7Q81.3 54.9 81.6 55.0Q81.9 55.1 82.4 55.1L82.4 55.1Q83.0 55.1 83.3 55.0Q83.6 54.8 83.7 54.5Q83.8 54.2 83.9 53.5L83.9 53.5L83.9 52.7L83.8 52.7Q83.6 53.2 83.3 53.4Q83.0 53.5 82.3 53.5L82.3 53.5Q81.4 53.5 80.9 53.3Q80.4 53.0 80.1 52.4Q79.9 51.8 79.9 50.6L79.9 50.6Q79.9 49.4 80.1 48.8Q80.4 48.2 80.9 47.9Q81.4 47.6 82.3 47.6L82.3 47.6Q83.0 47.6 83.3 47.8Q83.6 48.0 83.8 48.5L83.8 48.5L83.9 48.5L83.9 47.8L84.8 47.8L84.8 53.7Q84.7 54.5 84.5 55.0Q84.3 55.5 83.8 55.7Q83.3 55.9 82.4 55.9L82.4 55.9ZM80.9 50.6Q80.9 51.5 81.0 51.9Q81.1 52.4 81.4 52.5Q81.8 52.7 82.4 52.7L82.4 52.7Q83.0 52.7 83.3 52.5Q83.6 52.4 83.7 51.9Q83.9 51.5 83.9 50.6L83.9 50.6Q83.9 49.8 83.7 49.3Q83.6 48.8 83.3 48.6Q83.0 48.4 82.4 48.4L82.4 48.4Q81.8 48.4 81.4 48.6Q81.1 48.8 81.0 49.3Q80.9 49.8 80.9 50.6L80.9 50.6ZM86.8 53.5L86.8 52.7L88.7 52.7L88.7 46.3L86.9 46.3L86.9 45.5L89.6 45.5L89.6 52.7L91.5 52.7L91.5 53.5L86.8 53.5ZM95.1 46.8L95.1 45.5L96.4 45.5L96.4 46.8L95.1 46.8ZM93.6 53.5L93.6 52.7L95.5 52.7L95.5 48.6L93.8 48.6L93.8 47.8L96.4 47.8L96.4 52.7L98.2 52.7L98.2 53.5L93.6 53.5ZM102.3 53.6Q101.4 53.6 100.9 53.5Q100.4 53.3 100.2 52.9Q100.0 52.6 100.0 51.9L100.0 51.9L100.9 51.9Q100.9 52.3 101.1 52.5Q101.2 52.6 101.5 52.7Q101.8 52.8 102.4 52.8L102.4 52.8Q102.9 52.8 103.2 52.7Q103.5 52.7 103.6 52.5Q103.7 52.3 103.7 52.0L103.7 52.0Q103.7 51.7 103.5 51.5Q103.4 51.3 103.0 51.2Q102.7 51.0 102.0 50.9L102.0 50.9Q101.2 50.7 100.8 50.5Q100.4 50.3 100.2 50.0Q100.0 49.7 100.0 49.2L100.0 49.2Q100.0 48.6 100.2 48.3Q100.4 47.9 100.9 47.8Q101.4 47.6 102.3 47.6L102.3 47.6Q103.1 47.6 103.6 47.8Q104.0 47.9 104.2 48.2Q104.4 48.5 104.5 49.1L104.5 49.1L103.6 49.1Q103.5 48.7 103.2 48.6Q103.0 48.4 102.3 48.4L102.3 48.4Q101.7 48.4 101.5 48.5Q101.2 48.6 101.1 48.8Q100.9 48.9 100.9 49.3L100.9 49.3Q100.9 49.4 101.1 49.6Q101.3 49.7 101.6 49.9Q102.0 50.0 102.7 50.2L102.7 50.2Q103.5 50.4 103.9 50.6Q104.3 50.8 104.4 51.1Q104.6 51.4 104.6 52.0L104.6 52.0Q104.6 52.6 104.4 53.0Q104.2 53.3 103.7 53.5Q103.2 53.6 102.3 53.6L102.3 53.6ZM106.6 53.5L106.6 45.5L107.5 45.5L107.5 48.6L107.6 48.6Q107.9 48.0 108.2 47.8Q108.6 47.6 109.3 47.6L109.3 47.6Q110.1 47.6 110.5 47.8Q110.8 48.0 111.0 48.5Q111.2 49.0 111.2 49.8L111.2 49.8L111.2 53.5L110.3 53.5L110.3 49.8Q110.3 49.3 110.2 49.0Q110.0 48.7 109.8 48.6Q109.5 48.5 109.0 48.5L109.0 48.5Q108.4 48.5 108.1 48.7Q107.8 48.8 107.7 49.3Q107.5 49.7 107.5 50.5L107.5 50.5L107.5 53.5L106.6 53.5Z M119.8 53.5L119.8 52.7L121.7 52.7L121.7 46.3L119.9 46.3L119.9 45.5L122.6 45.5L122.6 52.7L124.5 52.7L124.5 53.5L119.8 53.5ZM128.1 53.6Q127.4 53.6 127.1 53.5Q126.7 53.3 126.5 53.0Q126.4 52.6 126.4 51.9L126.4 51.9Q126.4 51.1 126.6 50.7Q126.8 50.3 127.4 50.1Q127.9 49.9 128.9 49.9L128.9 49.9L129.9 49.9L129.9 49.6Q129.9 49.2 129.8 48.9Q129.7 48.7 129.4 48.5Q129.2 48.4 128.6 48.4L128.6 48.4Q128.0 48.4 127.7 48.6Q127.5 48.8 127.5 49.3L127.5 49.3L126.5 49.3Q126.5 48.6 126.7 48.3Q126.9 47.9 127.4 47.8Q127.8 47.6 128.6 47.6L128.6 47.6Q129.5 47.6 130.0 47.8Q130.4 48.0 130.6 48.4Q130.8 48.8 130.8 49.6L130.8 49.6L130.8 53.5L130.0 53.5L130.0 52.8L129.9 52.8Q129.6 53.3 129.2 53.4Q128.9 53.6 128.1 53.6L128.1 53.6ZM127.3 51.8Q127.3 52.4 127.5 52.6Q127.7 52.8 128.4 52.8L128.4 52.8Q129.0 52.8 129.3 52.6Q129.6 52.4 129.8 52.0Q129.9 51.5 129.9 50.7L129.9 50.7L128.7 50.7Q128.1 50.7 127.8 50.8Q127.5 50.9 127.4 51.1Q127.3 51.4 127.3 51.8L127.3 51.8ZM133.0 53.5L133.0 47.8L133.9 47.8L133.9 48.6L134.0 48.6Q134.2 48.0 134.6 47.8Q135.0 47.6 135.7 47.6L135.7 47.6Q136.5 47.6 136.9 47.8Q137.2 48.0 137.4 48.5Q137.6 49.0 137.6 49.8L137.6 49.8L137.6 53.5L136.7 53.5L136.7 49.8Q136.7 49.3 136.6 49.0Q136.4 48.7 136.2 48.6Q135.9 48.5 135.4 48.5L135.4 48.5Q134.8 48.5 134.5 48.7Q134.2 48.9 134.1 49.3Q133.9 49.7 133.9 50.5L133.9 50.5L133.9 53.5L133.0 53.5ZM141.8 55.9Q141.0 55.9 140.5 55.7Q140.0 55.6 139.8 55.2Q139.6 54.9 139.5 54.2L139.5 54.2L140.5 54.2Q140.5 54.5 140.6 54.7Q140.7 54.9 141.0 55.0Q141.3 55.1 141.8 55.1L141.8 55.1Q142.4 55.1 142.7 55.0Q143.0 54.8 143.1 54.5Q143.2 54.2 143.3 53.5L143.3 53.5L143.3 52.7L143.2 52.7Q143.0 53.2 142.7 53.4Q142.4 53.5 141.7 53.5L141.7 53.5Q140.8 53.5 140.3 53.3Q139.8 53.0 139.5 52.4Q139.3 51.8 139.3 50.6L139.3 50.6Q139.3 49.4 139.5 48.8Q139.8 48.2 140.3 47.9Q140.8 47.6 141.7 47.6L141.7 47.6Q142.4 47.6 142.7 47.8Q143.0 48.0 143.2 48.5L143.2 48.5L143.3 48.5L143.3 47.8L144.2 47.8L144.2 53.7Q144.1 54.5 143.9 55.0Q143.7 55.5 143.2 55.7Q142.7 55.9 141.8 55.9L141.8 55.9ZM140.3 50.6Q140.3 51.5 140.4 51.9Q140.5 52.4 140.8 52.5Q141.2 52.7 141.8 52.7L141.8 52.7Q142.4 52.7 142.7 52.5Q143.0 52.4 143.1 51.9Q143.3 51.5 143.3 50.6L143.3 50.6Q143.3 49.8 143.1 49.3Q143.0 48.8 142.7 48.6Q142.4 48.4 141.8 48.4L141.8 48.4Q141.2 48.4 140.8 48.6Q140.5 48.8 140.4 49.3Q140.3 49.8 140.3 50.6L140.3 50.6ZM148.0 53.6Q147.3 53.6 146.9 53.4Q146.5 53.2 146.3 52.8Q146.2 52.3 146.2 51.4L146.2 51.4L146.2 47.8L147.1 47.8L147.1 51.5Q147.1 52.0 147.2 52.3Q147.3 52.6 147.6 52.7Q147.8 52.8 148.2 52.8L148.2 52.8Q148.9 52.8 149.2 52.6Q149.6 52.4 149.7 52.0Q149.9 51.5 149.9 50.7L149.9 50.7L149.9 47.8L150.8 47.8L150.8 53.5L149.9 53.5L149.9 52.7L149.8 52.7Q149.5 53.2 149.1 53.4Q148.8 53.6 148.0 53.6L148.0 53.6ZM154.5 53.6Q153.8 53.6 153.5 53.5Q153.1 53.3 152.9 53.0Q152.8 52.6 152.8 51.9L152.8 51.9Q152.8 51.1 153.0 50.7Q153.2 50.3 153.8 50.1Q154.3 49.9 155.3 49.9L155.3 49.9L156.3 49.9L156.3 49.6Q156.3 49.2 156.2 48.9Q156.1 48.7 155.8 48.5Q155.6 48.4 155.0 48.4L155.0 48.4Q154.4 48.4 154.1 48.6Q153.9 48.8 153.9 49.3L153.9 49.3L152.9 49.3Q152.9 48.6 153.1 48.3Q153.3 47.9 153.8 47.8Q154.2 47.6 155.0 47.6L155.0 47.6Q155.9 47.6 156.4 47.8Q156.8 48.0 157.0 48.4Q157.2 48.8 157.2 49.6L157.2 49.6L157.2 53.5L156.4 53.5L156.4 52.8L156.3 52.8Q156.0 53.3 155.6 53.4Q155.3 53.6 154.5 53.6L154.5 53.6ZM153.7 51.8Q153.7 52.4 153.9 52.6Q154.1 52.8 154.8 52.8L154.8 52.8Q155.4 52.8 155.7 52.6Q156.0 52.4 156.2 52.0Q156.3 51.5 156.3 50.7L156.3 50.7L155.1 50.7Q154.5 50.7 154.2 50.8Q153.9 50.9 153.8 51.1Q153.7 51.4 153.7 51.8L153.7 51.8ZM161.6 55.9Q160.8 55.9 160.3 55.7Q159.8 55.6 159.6 55.2Q159.4 54.9 159.3 54.2L159.3 54.2L160.3 54.2Q160.3 54.5 160.4 54.7Q160.5 54.9 160.8 55.0Q161.1 55.1 161.6 55.1L161.6 55.1Q162.2 55.1 162.5 55.0Q162.8 54.8 162.9 54.5Q163.0 54.2 163.1 53.5L163.1 53.5L163.1 52.7L163.0 52.7Q162.8 53.2 162.5 53.4Q162.2 53.5 161.5 53.5L161.5 53.5Q160.6 53.5 160.1 53.3Q159.6 53.0 159.3 52.4Q159.1 51.8 159.1 50.6L159.1 50.6Q159.1 49.4 159.3 48.8Q159.6 48.2 160.1 47.9Q160.6 47.6 161.5 47.6L161.5 47.6Q162.2 47.6 162.5 47.8Q162.8 48.0 163.0 48.5L163.0 48.5L163.1 48.5L163.1 47.8L164.0 47.8L164.0 53.7Q163.9 54.5 163.7 55.0Q163.5 55.5 163.0 55.7Q162.5 55.9 161.6 55.9L161.6 55.9ZM160.1 50.6Q160.1 51.5 160.2 51.9Q160.3 52.4 160.6 52.5Q161.0 52.7 161.6 52.7L161.6 52.7Q162.2 52.7 162.5 52.5Q162.8 52.4 162.9 51.9Q163.1 51.5 163.1 50.6L163.1 50.6Q163.1 49.8 162.9 49.3Q162.8 48.8 162.5 48.6Q162.2 48.4 161.6 48.4L161.6 48.4Q161.0 48.4 160.6 48.6Q160.3 48.8 160.2 49.3Q160.1 49.8 160.1 50.6L160.1 50.6ZM168.4 53.6Q167.4 53.6 166.9 53.4Q166.3 53.1 166.1 52.5Q165.9 51.8 165.9 50.6L165.9 50.6Q165.9 49.4 166.1 48.8Q166.4 48.2 166.9 47.9Q167.4 47.6 168.3 47.6L168.3 47.6Q169.3 47.6 169.8 47.9Q170.3 48.2 170.5 48.9Q170.7 49.6 170.6 51.0L170.6 51.0L166.8 51.0Q166.9 51.7 167.0 52.1Q167.2 52.5 167.5 52.7Q167.8 52.8 168.4 52.8L168.4 52.8Q168.9 52.8 169.2 52.7Q169.4 52.5 169.6 52.0L169.6 52.0L170.5 52.0Q170.4 52.7 170.2 53.0Q169.9 53.4 169.5 53.5Q169.1 53.6 168.4 53.6L168.4 53.6ZM166.8 50.2L169.8 50.2Q169.7 49.5 169.6 49.1Q169.5 48.8 169.2 48.6Q168.8 48.5 168.3 48.5L168.3 48.5Q167.8 48.5 167.5 48.6Q167.2 48.8 167.0 49.1Q166.9 49.5 166.8 50.2L166.8 50.2Z M181.5 53.6Q180.6 53.6 180.1 53.5Q179.6 53.3 179.4 52.9Q179.2 52.6 179.2 51.9L179.2 51.9L180.1 51.9Q180.1 52.3 180.3 52.5Q180.4 52.6 180.7 52.7Q181.0 52.8 181.6 52.8L181.6 52.8Q182.1 52.8 182.4 52.7Q182.7 52.7 182.8 52.5Q182.9 52.3 182.9 52.0L182.9 52.0Q182.9 51.7 182.7 51.5Q182.6 51.3 182.2 51.2Q181.9 51.0 181.2 50.9L181.2 50.9Q180.4 50.7 180.0 50.5Q179.6 50.3 179.4 50.0Q179.2 49.7 179.2 49.2L179.2 49.2Q179.2 48.6 179.4 48.3Q179.6 47.9 180.1 47.8Q180.6 47.6 181.5 47.6L181.5 47.6Q182.3 47.6 182.8 47.8Q183.2 47.9 183.4 48.2Q183.6 48.5 183.7 49.1L183.7 49.1L182.8 49.1Q182.7 48.7 182.4 48.6Q182.2 48.4 181.5 48.4L181.5 48.4Q181.0 48.4 180.7 48.5Q180.4 48.6 180.3 48.8Q180.1 48.9 180.1 49.3L180.1 49.3Q180.1 49.4 180.3 49.6Q180.5 49.7 180.8 49.9Q181.2 50.0 181.9 50.2L181.9 50.2Q182.7 50.4 183.1 50.6Q183.5 50.8 183.6 51.1Q183.8 51.4 183.8 52.0L183.8 52.0Q183.8 52.6 183.6 53.0Q183.4 53.3 182.9 53.5Q182.4 53.6 181.5 53.6L181.5 53.6ZM187.6 53.6Q186.9 53.6 186.5 53.4Q186.1 53.2 185.9 52.8Q185.8 52.3 185.8 51.4L185.8 51.4L185.8 47.8L186.7 47.8L186.7 51.5Q186.7 52.0 186.8 52.3Q186.9 52.6 187.2 52.7Q187.4 52.8 187.8 52.8L187.8 52.8Q188.5 52.8 188.8 52.6Q189.2 52.4 189.3 52.0Q189.5 51.5 189.5 50.7L189.5 50.7L189.5 47.8L190.4 47.8L190.4 53.5L189.5 53.5L189.5 52.7L189.4 52.7Q189.1 53.2 188.7 53.4Q188.4 53.6 187.6 53.6L187.6 53.6ZM192.4 55.9L192.4 47.8L193.3 47.8L193.3 48.4L193.4 48.4Q193.7 47.9 194.0 47.8Q194.4 47.6 194.9 47.6L194.9 47.6Q195.8 47.6 196.3 47.9Q196.8 48.2 197.0 48.8Q197.2 49.4 197.2 50.6L197.2 50.6Q197.2 51.8 197.0 52.4Q196.8 53.1 196.3 53.4Q195.9 53.6 195.0 53.6L195.0 53.6Q194.3 53.6 194.0 53.5Q193.7 53.3 193.4 52.9L193.4 52.9L193.3 52.9L193.3 55.9L192.4 55.9ZM193.3 50.6Q193.3 51.5 193.4 52.0Q193.6 52.4 193.9 52.6Q194.2 52.8 194.7 52.8L194.7 52.8Q195.3 52.8 195.7 52.6Q196.0 52.4 196.2 51.9Q196.3 51.5 196.3 50.6L196.3 50.6Q196.3 49.8 196.2 49.3Q196.0 48.9 195.7 48.7Q195.3 48.5 194.7 48.5L194.7 48.5Q194.2 48.5 193.9 48.6Q193.6 48.8 193.4 49.3Q193.3 49.8 193.3 50.6L193.3 50.6ZM199.0 55.9L199.0 47.8L199.9 47.8L199.9 48.4L200.0 48.4Q200.3 47.9 200.6 47.8Q201.0 47.6 201.5 47.6L201.5 47.6Q202.4 47.6 202.9 47.9Q203.4 48.2 203.6 48.8Q203.8 49.4 203.8 50.6L203.8 50.6Q203.8 51.8 203.6 52.4Q203.4 53.1 202.9 53.4Q202.5 53.6 201.6 53.6L201.6 53.6Q200.9 53.6 200.6 53.5Q200.3 53.3 200.0 52.9L200.0 52.9L199.9 52.9L199.9 55.9L199.0 55.9ZM199.9 50.6Q199.9 51.5 200.0 52.0Q200.2 52.4 200.5 52.6Q200.8 52.8 201.3 52.8L201.3 52.8Q201.9 52.8 202.3 52.6Q202.6 52.4 202.8 51.9Q202.9 51.5 202.9 50.6L202.9 50.6Q202.9 49.8 202.8 49.3Q202.6 48.9 202.3 48.7Q201.9 48.5 201.3 48.5L201.3 48.5Q200.8 48.5 200.5 48.6Q200.2 48.8 200.0 49.3Q199.9 49.8 199.9 50.6L199.9 50.6ZM207.9 53.6Q206.9 53.6 206.4 53.4Q205.9 53.1 205.7 52.4Q205.4 51.8 205.4 50.6L205.4 50.6Q205.4 49.4 205.7 48.8Q205.9 48.2 206.4 47.9Q206.9 47.6 207.9 47.6L207.9 47.6Q208.9 47.6 209.4 47.9Q209.9 48.2 210.1 48.8Q210.4 49.5 210.4 50.6L210.4 50.6Q210.4 51.8 210.1 52.4Q209.9 53.1 209.4 53.4Q208.9 53.6 207.9 53.6L207.9 53.6ZM206.4 50.6Q206.4 51.5 206.5 52.0Q206.6 52.4 207.0 52.6Q207.3 52.8 207.9 52.8L207.9 52.8Q208.5 52.8 208.8 52.6Q209.2 52.4 209.3 52.0Q209.4 51.5 209.4 50.6L209.4 50.6Q209.4 49.8 209.3 49.3Q209.2 48.8 208.8 48.6Q208.5 48.4 207.9 48.4L207.9 48.4Q207.3 48.4 207.0 48.6Q206.6 48.8 206.5 49.3Q206.4 49.8 206.4 50.6L206.4 50.6ZM213.0 53.5L213.0 47.8L213.9 47.8L213.9 49.1L214.0 49.1Q214.3 48.4 214.5 48.2Q214.6 47.9 214.9 47.8Q215.1 47.8 215.6 47.7L215.6 47.7L216.1 47.7Q216.3 47.7 216.7 47.8L216.7 47.8L216.7 48.6Q216.4 48.6 216.0 48.6L216.0 48.6Q215.6 48.6 215.3 48.6L215.3 48.6Q215.0 48.7 214.7 49.0Q214.4 49.3 214.1 49.7Q213.9 50.1 213.9 50.6L213.9 50.6L213.9 53.5L213.0 53.5ZM221.8 53.6Q221.1 53.6 220.7 53.4Q220.4 53.3 220.3 52.9Q220.1 52.5 220.1 51.8L220.1 51.8L220.1 48.6L218.6 48.6L218.9 47.8L220.2 47.8L220.2 46.5L221.0 46.1L221.0 47.8L223.0 47.8L223.0 48.6L221.0 48.6L221.0 51.7Q221.0 52.1 221.1 52.4Q221.2 52.6 221.4 52.7Q221.7 52.8 222.1 52.8L222.1 52.8Q222.6 52.8 223.3 52.7L223.3 52.7L223.3 53.5Q222.3 53.6 221.8 53.6L221.8 53.6Z M236.3 53.5L235.3 53.5L234.3 48.8L234.3 48.8L233.3 53.5L232.3 53.5L231.1 47.8L232.1 47.8L232.8 52.4L232.9 52.4L233.8 47.8L234.8 47.8L235.7 52.4L235.8 52.4L236.5 47.8L237.5 47.8L236.3 53.5ZM240.4 46.8L240.4 45.5L241.6 45.5L241.6 46.8L240.4 46.8ZM238.8 53.5L238.8 52.7L240.7 52.7L240.7 48.6L239.0 48.6L239.0 47.8L241.6 47.8L241.6 52.7L243.4 52.7L243.4 53.5L238.8 53.5ZM248.2 53.6Q247.5 53.6 247.1 53.4Q246.8 53.3 246.7 52.9Q246.5 52.5 246.5 51.8L246.5 51.8L246.5 48.6L245.0 48.6L245.3 47.8L246.6 47.8L246.6 46.5L247.4 46.1L247.4 47.8L249.4 47.8L249.4 48.6L247.4 48.6L247.4 51.7Q247.4 52.1 247.5 52.4Q247.6 52.6 247.8 52.7Q248.1 52.8 248.5 52.8L248.5 52.8Q249.0 52.8 249.7 52.7L249.7 52.7L249.7 53.5Q248.7 53.6 248.2 53.6L248.2 53.6ZM251.8 53.5L251.8 45.5L252.7 45.5L252.7 48.6L252.8 48.6Q253.1 48.0 253.4 47.8Q253.8 47.6 254.5 47.6L254.5 47.6Q255.3 47.6 255.7 47.8Q256.0 48.0 256.2 48.5Q256.4 49.0 256.4 49.8L256.4 49.8L256.4 53.5L255.5 53.5L255.5 49.8Q255.5 49.3 255.4 49.0Q255.2 48.7 255.0 48.6Q254.7 48.5 254.2 48.5L254.2 48.5Q253.6 48.5 253.3 48.7Q253 48.8 252.9 49.3Q252.7 49.7 252.7 50.5L252.7 50.5L252.7 53.5L251.8 53.5Z M265.0 53.5L265.0 46.0L265.9 46.0L265.9 49.6L268.6 46.0L269.7 46.0L266.9 49.7L266.9 49.7L270.1 53.5L268.9 53.5L265.9 49.9L265.9 53.5L265.0 53.5ZM273.9 53.6Q272.9 53.6 272.3 53.3Q271.8 52.9 271.5 52.1Q271.3 51.3 271.3 49.8L271.3 49.8Q271.3 48.3 271.5 47.4Q271.8 46.6 272.3 46.3Q272.9 45.9 273.9 45.9L273.9 45.9Q274.9 45.9 275.5 46.3Q276.0 46.6 276.3 47.5Q276.5 48.3 276.5 49.8L276.5 49.8Q276.5 51.3 276.3 52.1Q276.0 52.9 275.5 53.3Q274.9 53.6 273.9 53.6L273.9 53.6ZM272.2 49.8Q272.2 51.0 272.4 51.6Q272.5 52.2 272.9 52.5Q273.2 52.8 273.9 52.8L273.9 52.8Q274.5 52.8 274.9 52.5Q275.3 52.2 275.4 51.6Q275.6 51.0 275.6 49.8L275.6 49.8Q275.6 48.6 275.4 48.0Q275.3 47.3 274.9 47.0Q274.5 46.8 273.9 46.8L273.9 46.8Q273.2 46.8 272.9 47.0Q272.5 47.3 272.4 48.0Q272.2 48.6 272.2 49.8L272.2 49.8ZM278.1 54.8L281.9 45.1L282.9 45.1L279.0 54.8L278.1 54.8ZM285.1 53.5L285.1 46.0L289.2 46.0L289.2 46.9L286.0 46.9L286.0 49.2L288.8 49.2L288.8 50.1L286.0 50.1L286.0 52.7L289.4 52.7L289.4 53.5L285.1 53.5ZM291.2 53.5L291.2 46.0L292.3 46.0L295.4 52.2L295.4 52.2L295.3 50.7L295.3 46.0L296.2 46.0L296.2 53.5L295.1 53.5L292.0 47.3L292.0 47.3L292.1 48.9L292.1 53.5L291.2 53.5Z M70.0 66.8Q69.3 66.8 68.9 66.7Q68.6 66.5 68.5 66.1Q68.3 65.7 68.3 65.0L68.3 65.0L68.3 61.8L66.8 61.8L67.1 61.0L68.4 61.0L68.4 59.7L69.2 59.3L69.2 61.0L71.2 61.0L71.2 61.8L69.2 61.8L69.2 64.9Q69.2 65.3 69.3 65.6Q69.4 65.8 69.6 65.9Q69.9 66.0 70.3 66.0L70.3 66.0Q70.8 66.0 71.5 65.9L71.5 65.9L71.5 66.7Q70.5 66.8 70.0 66.8L70.0 66.8ZM75.9 66.8Q74.9 66.8 74.4 66.6Q73.9 66.3 73.7 65.6Q73.4 65.0 73.4 63.8L73.4 63.8Q73.4 62.6 73.7 62.0Q73.9 61.4 74.4 61.1Q74.9 60.8 75.9 60.8L75.9 60.8Q76.9 60.8 77.4 61.1Q77.9 61.4 78.1 62.0Q78.4 62.7 78.4 63.8L78.4 63.8Q78.4 65.0 78.1 65.6Q77.9 66.3 77.4 66.6Q76.9 66.8 75.9 66.8L75.9 66.8ZM74.4 63.8Q74.4 64.7 74.5 65.2Q74.6 65.6 75.0 65.8Q75.3 66.0 75.9 66.0L75.9 66.0Q76.5 66.0 76.8 65.8Q77.2 65.6 77.3 65.2Q77.4 64.7 77.4 63.8L77.4 63.8Q77.4 63.0 77.3 62.5Q77.2 62.0 76.8 61.8Q76.5 61.6 75.9 61.6L75.9 61.6Q75.3 61.6 75.0 61.8Q74.6 62.0 74.5 62.5Q74.4 63.0 74.4 63.8L74.4 63.8ZM82.4 69.1Q81.6 69.1 81.1 68.9Q80.6 68.8 80.4 68.4Q80.2 68.1 80.1 67.4L80.1 67.4L81.1 67.4Q81.1 67.8 81.2 67.9Q81.3 68.1 81.6 68.2Q81.9 68.3 82.4 68.3L82.4 68.3Q83.0 68.3 83.3 68.2Q83.6 68.0 83.7 67.7Q83.8 67.4 83.9 66.7L83.9 66.7L83.9 65.9L83.8 65.9Q83.6 66.4 83.3 66.6Q83.0 66.7 82.3 66.7L82.3 66.7Q81.4 66.7 80.9 66.5Q80.4 66.2 80.1 65.6Q79.9 65.0 79.9 63.8L79.9 63.8Q79.9 62.6 80.1 62.0Q80.4 61.4 80.9 61.1Q81.4 60.8 82.3 60.8L82.3 60.8Q83.0 60.8 83.3 61.0Q83.6 61.2 83.8 61.7L83.8 61.7L83.9 61.7L83.9 61.0L84.8 61.0L84.8 66.9Q84.7 67.7 84.5 68.2Q84.3 68.7 83.8 68.9Q83.3 69.1 82.4 69.1L82.4 69.1ZM80.9 63.8Q80.9 64.7 81.0 65.1Q81.1 65.6 81.4 65.7Q81.8 65.9 82.4 65.9L82.4 65.9Q83.0 65.9 83.3 65.7Q83.6 65.6 83.7 65.1Q83.9 64.7 83.9 63.8L83.9 63.8Q83.9 63.0 83.7 62.5Q83.6 62.0 83.3 61.8Q83.0 61.6 82.4 61.6L82.4 61.6Q81.8 61.6 81.4 61.8Q81.1 62.0 81.0 62.5Q80.9 63.0 80.9 63.8L80.9 63.8ZM89.0 69.1Q88.2 69.1 87.7 68.9Q87.2 68.8 87.0 68.4Q86.8 68.1 86.7 67.4L86.7 67.4L87.7 67.4Q87.7 67.8 87.8 67.9Q87.9 68.1 88.2 68.2Q88.5 68.3 89.0 68.3L89.0 68.3Q89.6 68.3 89.9 68.2Q90.2 68.0 90.3 67.7Q90.4 67.4 90.5 66.7L90.5 66.7L90.5 65.9L90.4 65.9Q90.2 66.4 89.9 66.6Q89.6 66.7 88.9 66.7L88.9 66.7Q88.0 66.7 87.5 66.5Q87.0 66.2 86.7 65.6Q86.5 65.0 86.5 63.8L86.5 63.8Q86.5 62.6 86.7 62.0Q87.0 61.4 87.5 61.1Q88.0 60.8 88.9 60.8L88.9 60.8Q89.6 60.8 89.9 61.0Q90.2 61.2 90.4 61.7L90.4 61.7L90.5 61.7L90.5 61.0L91.4 61.0L91.4 66.9Q91.3 67.7 91.1 68.2Q90.9 68.7 90.4 68.9Q89.9 69.1 89.0 69.1L89.0 69.1ZM87.5 63.8Q87.5 64.7 87.6 65.1Q87.7 65.6 88.0 65.7Q88.4 65.9 89.0 65.9L89.0 65.9Q89.6 65.9 89.9 65.7Q90.2 65.6 90.3 65.1Q90.5 64.7 90.5 63.8L90.5 63.8Q90.5 63.0 90.3 62.5Q90.2 62.0 89.9 61.8Q89.6 61.6 89.0 61.6L89.0 61.6Q88.4 61.6 88.0 61.8Q87.7 62.0 87.6 62.5Q87.5 63.0 87.5 63.8L87.5 63.8ZM93.4 66.7L93.4 65.9L95.3 65.9L95.3 59.5L93.5 59.5L93.5 58.7L96.2 58.7L96.2 65.9L98.1 65.9L98.1 66.7L93.4 66.7ZM102.4 66.8Q101.4 66.8 100.9 66.6Q100.3 66.3 100.1 65.7Q99.9 65.0 99.9 63.8L99.9 63.8Q99.9 62.6 100.1 62.0Q100.4 61.4 100.9 61.1Q101.4 60.8 102.3 60.8L102.3 60.8Q103.3 60.8 103.8 61.1Q104.3 61.4 104.5 62.1Q104.7 62.8 104.6 64.2L104.6 64.2L100.8 64.2Q100.9 64.9 101.0 65.3Q101.2 65.7 101.5 65.9Q101.8 66.0 102.4 66.0L102.4 66.0Q102.9 66.0 103.2 65.9Q103.4 65.7 103.6 65.2L103.6 65.2L104.5 65.2Q104.4 65.9 104.2 66.2Q103.9 66.6 103.5 66.7Q103.1 66.8 102.4 66.8L102.4 66.8ZM100.8 63.4L103.8 63.4Q103.7 62.7 103.6 62.3Q103.5 62.0 103.2 61.8Q102.8 61.7 102.3 61.7L102.3 61.7Q101.8 61.7 101.5 61.8Q101.2 62.0 101.0 62.3Q100.9 62.7 100.8 63.4L100.8 63.4Z "/></svg>